<svg width="24" height="25" viewBox="0 0 24 25" fill="none" xmlns="http://www.w3.org/2000/svg">
    <g clip-path="url(#clip0_66_1046)">
        <path d="M12 2.38164C15.2063 2.38164 15.5859 2.3957 16.8469 2.45195C18.0188 2.50352 18.6516 2.70039 19.0734 2.86445C19.6313 3.08008 20.0344 3.34258 20.4516 3.75977C20.8734 4.18164 21.1313 4.58008 21.3469 5.13789C21.5109 5.55977 21.7078 6.19727 21.7594 7.36445C21.8156 8.63008 21.8297 9.00977 21.8297 12.2113C21.8297 15.4176 21.8156 15.7973 21.7594 17.0582C21.7078 18.2301 21.5109 18.8629 21.3469 19.2848C21.1313 19.8426 20.8687 20.2457 20.4516 20.6629C20.0297 21.0848 19.6313 21.3426 19.0734 21.5582C18.6516 21.7223 18.0141 21.9191 16.8469 21.9707C15.5813 22.027 15.2016 22.041 12 22.041C8.79375 22.041 8.41406 22.027 7.15313 21.9707C5.98125 21.9191 5.34844 21.7223 4.92656 21.5582C4.36875 21.3426 3.96563 21.0801 3.54844 20.6629C3.12656 20.241 2.86875 19.8426 2.65313 19.2848C2.48906 18.8629 2.29219 18.2254 2.24063 17.0582C2.18438 15.7926 2.17031 15.4129 2.17031 12.2113C2.17031 9.00508 2.18438 8.62539 2.24063 7.36445C2.29219 6.19258 2.48906 5.55977 2.65313 5.13789C2.86875 4.58008 3.13125 4.17695 3.54844 3.75977C3.97031 3.33789 4.36875 3.08008 4.92656 2.86445C5.34844 2.70039 5.98594 2.50352 7.15313 2.45195C8.41406 2.3957 8.79375 2.38164 12 2.38164ZM12 0.220703C8.74219 0.220703 8.33438 0.234766 7.05469 0.291016C5.77969 0.347266 4.90313 0.553516 4.14375 0.848828C3.35156 1.1582 2.68125 1.56602 2.01563 2.23633C1.34531 2.90195 0.9375 3.57227 0.628125 4.35977C0.332812 5.12383 0.126563 5.9957 0.0703125 7.2707C0.0140625 8.55508 0 8.96289 0 12.2207C0 15.4785 0.0140625 15.8863 0.0703125 17.166C0.126563 18.441 0.332812 19.3176 0.628125 20.077C0.9375 20.8691 1.34531 21.5395 2.01563 22.2051C2.68125 22.8707 3.35156 23.2832 4.13906 23.5879C4.90313 23.8832 5.775 24.0895 7.05 24.1457C8.32969 24.202 8.7375 24.216 11.9953 24.216C15.2531 24.216 15.6609 24.202 16.9406 24.1457C18.2156 24.0895 19.0922 23.8832 19.8516 23.5879C20.6391 23.2832 21.3094 22.8707 21.975 22.2051C22.6406 21.5395 23.0531 20.8691 23.3578 20.0816C23.6531 19.3176 23.8594 18.4457 23.9156 17.1707C23.9719 15.891 23.9859 15.4832 23.9859 12.2254C23.9859 8.96758 23.9719 8.55977 23.9156 7.28008C23.8594 6.00508 23.6531 5.12852 23.3578 4.36914C23.0625 3.57227 22.6547 2.90195 21.9844 2.23633C21.3188 1.5707 20.6484 1.1582 19.8609 0.853516C19.0969 0.558203 18.225 0.351953 16.95 0.295703C15.6656 0.234766 15.2578 0.220703 12 0.220703Z"
              fill="currentColor"/>
        <path d="M12 6.05664C8.59688 6.05664 5.83594 8.81758 5.83594 12.2207C5.83594 15.6238 8.59688 18.3848 12 18.3848C15.4031 18.3848 18.1641 15.6238 18.1641 12.2207C18.1641 8.81758 15.4031 6.05664 12 6.05664ZM12 16.2191C9.79219 16.2191 8.00156 14.4285 8.00156 12.2207C8.00156 10.0129 9.79219 8.22227 12 8.22227C14.2078 8.22227 15.9984 10.0129 15.9984 12.2207C15.9984 14.4285 14.2078 16.2191 12 16.2191Z"
              fill="currentColor"/>
        <path d="M19.8469 5.81284C19.8469 6.60972 19.2 7.25191 18.4078 7.25191C17.6109 7.25191 16.9688 6.60503 16.9688 5.81284C16.9688 5.01597 17.6156 4.37378 18.4078 4.37378C19.2 4.37378 19.8469 5.02066 19.8469 5.81284Z"
              fill="currentColor"/>
    </g>
    <defs>
        <clipPath id="clip0_66_1046">
            <rect width="24" height="24" fill="white" transform="translate(0 0.220703)"/>
        </clipPath>
    </defs>
</svg>
