<svg xmlns="http://www.w3.org/2000/svg" width="100%" viewBox="0 0 203 75">
    <svg width="100%" viewBox="0 0 58 74" fill="none" xmlns="http://www.w3.org/2000/svg" x="-70">
        <path d="M8.256 70.9441C8 71.5841 7.136 71.9041 5.664 71.9041C4.192 71.9041 2.912 71.4881 1.824 70.6561C1.056 69.8881 0.543996 69.2801 0.287997 68.8321C0.0959964 68.4481 0.223996 67.7441 0.671996 66.7201C1.12 65.7601 1.888 64.0321 2.976 61.5361C3.232 60.0001 3.68 58.4641 4.32 56.9281C4.96 55.3281 5.44 54.2081 5.76 53.5681C6.016 52.6721 6.528 51.2001 7.296 49.1521C8.128 47.0401 9.056 44.7041 10.08 42.1441C11.168 39.5841 12.192 37.1841 13.152 34.9441C14.112 32.6401 14.816 30.9121 15.264 29.7601C16.352 27.2001 17.472 24.5121 18.624 21.6961C19.776 18.8801 21.344 15.3281 23.328 11.0401C23.584 10.4001 23.488 9.72808 23.04 9.02408C22.592 8.32008 21.824 7.96808 20.736 7.96808C20.096 7.26408 19.744 6.52808 19.68 5.76008C19.616 4.92808 19.936 4.35208 20.64 4.03208L29.472 1.05608C32.48 0.352079 35.552 0.16008 38.688 0.48008C41.888 0.73608 44.896 1.60008 47.712 3.07208C50.784 4.86408 53.024 6.84808 54.432 9.02408C55.84 11.2001 56.608 13.4081 56.736 15.6481C56.928 17.8241 56.672 19.8081 55.968 21.6001C55.456 22.9441 54.464 24.4161 52.992 26.0161C51.584 27.6161 49.92 29.2161 48 30.8161C46.144 32.4161 44.192 33.8881 42.144 35.2321C40.16 36.5121 38.304 37.5041 36.576 38.2081C34.976 38.9761 33.184 39.7761 31.2 40.6081C29.216 41.3761 27.296 42.0481 25.44 42.6241C24.416 42.8801 23.2 43.0081 21.792 43.0081C20.384 43.0081 19.328 42.8801 18.624 42.6241L16.992 45.6961C16.352 48.0001 15.232 51.4241 13.632 55.9681C12.096 60.5121 10.304 65.5041 8.256 70.9441ZM46.368 72.7681C45.856 72.9601 44.992 73.0241 43.776 72.9601C42.624 72.8961 41.312 72.3841 39.84 71.4241C37.024 69.7601 34.208 67.7441 31.392 65.3761C28.576 63.0081 25.408 59.8081 21.888 55.7761C20.544 54.1761 19.52 52.5761 18.816 50.9761C18.176 49.3761 17.344 47.3601 16.32 44.9281L14.976 39.7441L18.624 37.3441L22.848 40.8001C23.872 43.0401 25.056 45.1841 26.4 47.2321C27.808 49.2801 29.216 51.1041 30.624 52.7041C31.776 54.0481 33.344 55.6801 35.328 57.6001C37.312 59.4561 39.424 61.2481 41.664 62.9761C43.904 64.7041 45.92 66.0161 47.712 66.9121C48.096 67.2321 48.192 67.8401 48 68.7361C47.872 69.6961 47.616 70.5921 47.232 71.4241C46.912 72.2561 46.624 72.7041 46.368 72.7681ZM22.176 35.1361C23.648 35.0081 25.248 34.6241 26.976 33.9841C28.768 33.2801 30.656 32.5121 32.64 31.6801C34.496 30.7841 36.32 29.8241 38.112 28.8001C39.968 27.7121 41.632 26.5281 43.104 25.2481C44.64 23.9681 45.824 22.5921 46.656 21.1201C47.552 19.6481 47.936 18.0801 47.808 16.4161C47.808 15.5841 47.552 14.6561 47.04 13.6321C46.528 12.6081 45.856 11.6801 45.024 10.8481C44.256 10.0161 43.456 9.47208 42.624 9.21608C40.064 8.57608 38.112 8.19208 36.768 8.06408C35.424 7.93608 34.432 8.12808 33.792 8.64008C33.216 9.15208 32.768 10.0481 32.448 11.3281C32.448 11.5201 32.192 12.1281 31.68 13.1521C31.168 14.1761 30.528 15.4881 29.76 17.0881C29.056 18.6241 28.352 20.2881 27.648 22.0801C25.792 25.8561 24.416 28.6401 23.52 30.4321C22.688 32.1601 22.176 33.3121 21.984 33.8881C21.856 34.4641 21.92 34.8801 22.176 35.1361Z"
              fill="#BEFF7D"/>
    </svg>
    <svg width="100%" viewBox="0 0 57 69" fill="none" xmlns="http://www.w3.org/2000/svg" x="-18">
        <path d="M15.744 68.0641C13.76 67.9361 11.776 67.2001 9.792 65.8561C7.808 64.5761 5.984 63.3601 4.32 62.2081C3.232 61.1201 2.4 59.9681 1.824 58.7521C1.248 57.4721 0.768003 55.8081 0.384003 53.7601C0.128003 52.5441 0.128003 50.9441 0.384003 48.9601C0.640003 46.9761 1.056 44.9921 1.632 43.0081C2.208 40.9601 2.752 39.3601 3.264 38.2081C4.032 36.4161 4.992 34.4961 6.144 32.4481C7.36 30.3361 8.544 28.3521 9.696 26.4961C10.912 24.5761 11.872 23.0401 12.576 21.8881C13.024 21.4401 13.216 21.2161 13.152 21.2161C13.152 21.1521 13.152 21.1201 13.152 21.1201C13.152 20.8001 13.472 20.0001 14.112 18.7201C14.816 17.3761 15.424 16.1921 15.936 15.1681C16.896 14.1441 17.44 13.3121 17.568 12.6721C17.696 12.0321 17.6 11.5201 17.28 11.1361C17.152 10.8801 17.408 10.3361 18.048 9.50406C18.752 8.67206 19.712 7.74406 20.928 6.72007C22.144 5.63206 23.488 4.67206 24.96 3.84006C26.496 2.62406 27.968 1.98406 29.376 1.92006C30.848 1.79207 31.712 2.08007 31.968 2.78407C31.968 2.97607 32.32 3.04007 33.024 2.97606C33.792 2.84806 34.656 2.68806 35.616 2.49606C36.64 2.24007 37.536 2.04807 38.304 1.92006C38.624 1.53607 39.36 1.24807 40.512 1.05606C41.728 0.800064 43.136 0.576065 44.736 0.384068C45.568 0.448067 46.496 0.480066 47.52 0.480066C48.544 0.416067 49.44 0.352066 50.208 0.288063C51.04 0.224064 51.456 0.192064 51.456 0.192064C51.904 0.0640659 52.544 0.352066 53.376 1.05606C54.272 1.69606 54.976 2.59206 55.488 3.74406C55.936 4.89606 55.552 5.88807 54.336 6.72007C53.12 7.55207 51.2 8.12807 48.576 8.44807C46.656 8.70407 45.152 8.92807 44.064 9.12006C43.04 9.24807 41.92 9.44007 40.704 9.69607C39.552 9.88807 37.856 10.2401 35.616 10.7521C34.016 11.0721 32.672 11.3281 31.584 11.5201C30.496 11.7121 29.536 12.0961 28.704 12.6721C27.936 13.2481 27.072 14.2721 26.112 15.7441C25.664 16.0641 25.088 16.8961 24.384 18.2401C23.68 19.5841 22.976 20.9281 22.272 22.2721C20.48 24.7681 19.136 26.6241 18.24 27.8401C17.408 28.9921 17.12 29.7281 17.376 30.0481C17.376 30.0481 17.824 30.1441 18.72 30.3361C19.616 30.5281 20.192 30.6241 20.448 30.6241C21.088 30.3041 21.856 30.0801 22.752 29.9521C23.712 29.8241 24.48 29.6961 25.056 29.5681C29.024 28.5441 31.936 27.8081 33.792 27.3601C35.712 26.8481 37.056 26.4961 37.824 26.3041C38.656 26.1121 39.392 25.9841 40.032 25.9201C40.928 25.2161 41.824 25.2801 42.72 26.1121C43.68 26.8801 44.352 27.8081 44.736 28.8961C45.184 30.1761 45.184 31.1681 44.736 31.8721C44.288 32.5761 43.296 33.1521 41.76 33.6001C40.288 34.0481 38.176 34.5921 35.424 35.2321C32.672 35.8081 29.216 36.6721 25.056 37.8241C21.536 38.8481 18.688 39.4561 16.512 39.6481C14.336 39.8401 13.312 39.2961 13.44 38.0161C12.992 37.7601 12.48 38.0161 11.904 38.7841C11.392 39.4881 10.912 40.4801 10.464 41.7601C10.016 43.0401 9.6 44.4161 9.216 45.8881C8.896 47.3601 8.704 48.7361 8.64 50.0161C8.576 51.2961 8.672 52.2881 8.928 52.9921C9.44 54.4641 10.24 55.7441 11.328 56.8321C12.48 57.8561 14.144 58.6881 16.32 59.3281C17.6 59.3921 18.848 59.4881 20.064 59.6161C21.28 59.7441 22.656 59.4881 24.192 58.8481C27.968 58.2081 30.592 57.5361 32.064 56.8321C33.536 56.1281 34.432 55.6481 34.752 55.3921C35.264 55.1361 35.584 54.8801 35.712 54.6241C35.904 54.3681 36.16 54.2401 36.48 54.2401C36.288 54.5601 36.352 54.5601 36.672 54.2401C36.992 53.9201 37.504 53.4721 38.208 52.8961C39.552 51.7441 40.896 51.0401 42.24 50.7841C43.584 50.5281 44.704 50.5281 45.6 50.7841C46.496 50.9761 46.976 51.2321 47.04 51.5521C47.424 52.1921 47.232 53.2161 46.464 54.6241C45.696 55.9681 44.512 57.4081 42.912 58.9441C41.376 60.4801 39.552 61.8561 37.44 63.0721C34.048 64.8641 30.368 66.1121 26.4 66.8161C22.432 67.5841 18.88 68.0001 15.744 68.0641Z"
              fill="#BEFF7D"/>
    </svg>
    <svg width="100%" viewBox="0 0 51 73" fill="none" xmlns="http://www.w3.org/2000/svg" x="31">
        <path d="M2.016 69.6961C0.864004 69.0561 0.224004 68.3521 0.0960038 67.5841C0.0320039 66.8161 0.480004 65.4721 1.44 63.5521C2.4 61.6321 3.904 58.6561 5.952 54.6241C7.488 51.7441 8.512 49.5041 9.024 47.9041C9.6 46.2401 9.92 45.0561 9.984 44.3521C10.048 43.6481 10.08 43.2001 10.08 43.0081C9.952 42.4321 10.016 41.9841 10.272 41.6641C10.528 41.2801 10.944 40.9601 11.52 40.7041C11.84 40.3841 12.576 39.8081 13.728 38.9761C14.88 38.1441 15.776 37.1521 16.416 36.0001C16.992 34.6561 17.632 33.2801 18.336 31.8721C19.104 30.4641 20.096 28.7041 21.312 26.5921C22.528 24.4161 24.16 21.6001 26.208 18.1441C27.488 15.9041 28.992 13.3761 30.72 10.5601C32.512 7.74407 34.272 5.18407 36 2.88007C36.704 1.98407 37.44 1.28007 38.208 0.76807C38.976 0.256073 39.648 7.43866e-05 40.224 7.43866e-05C41.632 7.43866e-05 43.04 0.384073 44.448 1.15207C45.856 1.85607 47.104 2.75207 48.192 3.84007C49.28 4.92807 50.016 5.95207 50.4 6.91207C50.72 7.42407 50.848 8.51207 50.784 10.1761C50.72 11.8401 50.592 13.8561 50.4 16.2241C50.208 18.5921 49.984 21.1201 49.728 23.8081C49.536 26.4321 49.248 29.5361 48.864 33.1201C48.48 36.7041 48.096 40.4481 47.712 44.3521C47.392 48.2561 47.136 52.0321 46.944 55.6801C46.752 59.2641 46.752 62.4001 46.944 65.0881C47.008 65.6641 47.008 66.2081 46.944 66.7201C46.88 67.2321 46.848 67.6481 46.848 67.9681C46.464 68.3521 45.632 68.5121 44.352 68.4481C43.072 68.4481 41.824 68.2561 40.608 67.8721C39.392 67.4881 38.72 67.0081 38.592 66.4321C38.4 66.2401 38.272 66.0801 38.208 65.9521C38.144 65.8241 38.144 65.2161 38.208 64.1281C38.272 62.9761 38.368 60.8961 38.496 57.8881L38.976 43.2001L37.728 43.2961C37.152 43.2961 36.096 43.3601 34.56 43.4881C33.088 43.6161 31.456 43.8081 29.664 44.0641C27.936 44.2561 26.336 44.4801 24.864 44.7361C23.392 44.9281 22.368 45.1201 21.792 45.3121C21.216 45.3121 20.512 45.6961 19.68 46.4641C18.912 47.2321 18.176 48.2241 17.472 49.4401C17.216 50.3361 16.736 51.2961 16.032 52.3201C15.392 53.2801 15.072 53.9201 15.072 54.2401C14.624 54.5601 14.24 54.9441 13.92 55.3921C13.664 55.8401 13.536 56.0641 13.536 56.0641C13.536 56.4481 13.248 57.4081 12.672 58.9441C12.096 60.4161 11.392 62.0801 10.56 63.9361C9.728 65.7281 8.864 67.2961 7.968 68.6401L5.376 72.2881L2.016 69.6961ZM24.96 36.6721C24.96 36.6721 25.312 36.6081 26.016 36.4801C26.72 36.3521 27.552 36.2241 28.512 36.0961C29.536 35.9041 30.432 35.8081 31.2 35.8081C32.672 35.4241 33.888 35.1361 34.848 34.9441C35.872 34.7521 36.704 34.6561 37.344 34.6561C37.984 34.5921 38.496 34.6561 38.88 34.8481C39.136 35.1681 39.36 35.3601 39.552 35.4241C39.808 35.4881 39.936 35.5201 39.936 35.5201C40 35.3921 40.128 34.7201 40.32 33.5041C40.512 32.2881 40.736 30.7841 40.992 28.9921C41.248 27.2001 41.504 25.3441 41.76 23.4241C42.016 21.4401 42.24 19.6161 42.432 17.9521C42.624 16.2241 42.752 14.8801 42.816 13.9201C42.88 12.7041 42.848 11.6161 42.72 10.6561C42.592 9.63207 42.528 9.12007 42.528 9.12007C42.144 9.12007 41.408 9.82407 40.32 11.2321C39.296 12.5761 38.08 14.4001 36.672 16.7041C35.328 18.9441 33.984 21.3761 32.64 24.0001C32 25.2161 31.392 26.1761 30.816 26.8801C30.304 27.5841 29.888 27.9361 29.568 27.9361C29.44 28.0641 29.088 28.5761 28.512 29.4721C28 30.3041 27.424 31.2641 26.784 32.3521C26.208 33.3761 25.696 34.3361 25.248 35.2321C24.864 36.0641 24.768 36.5441 24.96 36.6721Z"
              fill="#BEFF7D"/>
    </svg>
    <svg width="100%" viewBox="0 0 37 75" fill="none" xmlns="http://www.w3.org/2000/svg" x="80">
        <path d="M10.08 73.1519C7.52 72.5119 5.44 71.1679 3.84 69.1199C2.304 67.1359 1.056 64.7359 0.0960016 61.9199C0.0320015 61.0879 1.43051e-06 59.9359 1.43051e-06 58.4639C0.0640016 56.9919 0.160002 55.6159 0.288002 54.3359C0.416002 53.0559 0.544002 52.3199 0.672001 52.1279C0.864002 51.9999 0.960002 51.6159 0.960002 50.9759C0.896002 50.7199 0.928002 50.3039 1.056 49.7279C1.248 49.0879 1.44 48.4479 1.632 47.8079C1.952 47.0399 2.112 46.4319 2.112 45.9839C2.112 45.4719 2.08 45.0879 2.016 44.8319C2.016 44.8319 2.112 44.6399 2.304 44.2559C2.496 43.8079 2.72 43.4559 2.976 43.1999C3.36 42.8159 3.52 42.4319 3.456 42.0479C3.456 41.6639 3.456 41.4719 3.456 41.4719C3.392 41.2159 3.456 40.8639 3.648 40.4159C3.84 39.9679 4.032 39.6159 4.224 39.3599C4.352 39.2319 4.512 38.9759 4.704 38.5919C4.96 38.1439 5.088 37.9199 5.088 37.9199C5.088 37.7279 5.216 37.2159 5.472 36.3839C5.792 35.5519 6.144 34.6559 6.528 33.6959C6.912 32.6719 7.264 31.7439 7.584 30.9119C7.968 30.0799 8.256 29.5359 8.448 29.2799V29.0879C8.704 28.4479 9.056 27.7759 9.504 27.0719C9.568 26.7519 9.728 26.2399 9.984 25.5359C10.24 24.7679 10.528 24.0319 10.848 23.3279C11.552 21.7919 12.416 20.0639 13.44 18.1439C14.528 16.1599 15.68 14.2079 16.896 12.2879C18.112 10.3039 19.264 8.5439 20.352 7.0079C21.504 5.40789 22.496 4.22389 23.328 3.4559C24.416 2.2399 25.504 1.3759 26.592 0.863895C27.744 0.287895 28.8 0.479895 29.76 1.43989C30.208 1.8879 30.592 2.5599 30.912 3.4559C31.232 4.2879 31.36 5.0879 31.296 5.85589C31.296 6.5599 31.04 6.9439 30.528 7.0079C30.08 7.2639 29.472 7.9999 28.704 9.2159C27.936 10.3679 27.072 11.7439 26.112 13.3439C25.216 14.9439 24.32 16.6079 23.424 18.3359C22.528 19.9999 21.696 21.5039 20.928 22.8479C20.096 24.7039 19.328 26.3359 18.624 27.7439C17.92 29.0879 17.568 29.7599 17.568 29.7599C17.504 29.9519 17.44 30.1119 17.376 30.2399C17.312 30.3679 17.248 30.4959 17.184 30.6239C16.224 32.6079 15.424 34.4319 14.784 36.0959C14.144 37.6959 13.504 39.3919 12.864 41.1839C12.48 41.6319 12.256 42.0799 12.192 42.5279C12.128 42.9759 12.096 43.1999 12.096 43.1999C11.968 43.1359 11.872 43.2959 11.808 43.6799C11.744 43.9999 11.616 44.3839 11.424 44.8319C11.104 45.0879 10.912 45.5039 10.848 46.0799C10.784 46.5919 10.752 47.1039 10.752 47.6159C10.304 48.7679 9.888 50.1759 9.504 51.8399C9.12 53.4399 8.832 55.0079 8.64 56.5439C8.512 58.0159 8.48 59.1679 8.544 59.9999C8.672 61.0879 8.96 62.0159 9.408 62.7839C9.92 63.4879 10.624 64.0639 11.52 64.5119C12.224 64.8319 12.864 65.1199 13.44 65.3759C14.016 65.5679 14.528 65.6639 14.976 65.6639C15.488 65.7279 16.128 65.7279 16.896 65.6639C17.728 65.5359 18.848 65.3439 20.256 65.0879H20.16C20.992 64.9599 21.856 64.7999 22.752 64.6079C23.712 64.3519 24.608 64.1279 25.44 63.9359C26.208 63.8079 26.944 63.6799 27.648 63.5519C28.352 63.3599 28.896 63.1999 29.28 63.0719C30.688 62.6879 31.808 62.3679 32.64 62.1119C33.536 61.8559 34.144 61.8559 34.464 62.1119C34.784 62.3679 35.136 62.8479 35.52 63.5519C35.904 64.2559 36 64.8959 35.808 65.4719C35.68 65.7919 35.04 66.4319 33.888 67.3919C32.736 68.4159 31.424 69.4079 29.952 70.3679C28.48 71.3919 27.136 72.0959 25.92 72.4799C24.64 73.0559 22.912 73.4399 20.736 73.6319C18.624 73.8879 16.576 73.9519 14.592 73.8239C12.608 73.6959 11.104 73.4719 10.08 73.1519Z"
              fill="#BEFF7D"/>
    </svg>
</svg>