<svg width="100%" viewBox="0 0 98 26" fill="none" xmlns="http://www.w3.org/2000/svg">
    <rect y="0.566895" width="97.4973" height="24.63" rx="12.315" fill="#FF6160"/>
    <path fill-rule="evenodd" clip-rule="evenodd"
          d="M21.8546 9.89577C21.9018 9.12886 22.2318 8.40269 22.7859 7.8563L24.7299 5.9396C26.0283 4.65943 28.2483 5.5661 28.2483 7.37653C28.2483 7.54268 28.2276 7.70821 28.1868 7.8694L27.673 9.89578H30.2569C31.7984 9.89578 33.048 11.1279 33.048 12.6477C33.048 13.0204 32.9712 13.3892 32.8223 13.7318L31.4146 16.9703C30.7843 18.4203 29.3383 19.3605 27.7383 19.3605H22.6487L22.6455 19.3605H19.4489C19.0071 19.3605 18.6489 19.0074 18.6489 18.5718V10.6845C18.6489 10.2489 19.0071 9.89577 19.4489 9.89577H21.8546ZM25.8612 7.05503C26.1517 6.7686 26.6484 6.97146 26.6484 7.37653C26.6484 7.41371 26.6438 7.45074 26.6346 7.48681L25.8724 10.4932C25.8126 10.7288 25.8663 10.9785 26.0179 11.1699C26.1695 11.3613 26.4021 11.4732 26.6484 11.4732H30.2569C30.9148 11.4732 31.4481 11.9991 31.4481 12.6477C31.4481 12.8068 31.4153 12.9642 31.3518 13.1104L29.9441 16.3489C29.5659 17.2189 28.6983 17.783 27.7383 17.783H23.4486V10.0872C23.4486 9.66879 23.6172 9.26756 23.9172 8.97173L25.8612 7.05503Z"
          fill="white"/>
    <path d="M43.8453 18.0068V7.51395H45.1423V16.7754H50.0098V18.0068H43.8453ZM51.3882 8.74541V7.40465H52.6852V8.74541H51.3882ZM51.3882 18.0068V10.1372H52.6852V18.0068H51.3882ZM54.8643 18.0068L54.8716 7.51395H56.1832V13.9263L59.4841 10.1372L61.1673 10.1372L57.6915 14.072L61.5753 18.0068H59.761L56.1832 14.2177V18.0068H54.8643ZM65.5685 18.2254C64.7961 18.2254 64.1208 18.0554 63.5428 17.7154C62.9695 17.3705 62.5226 16.892 62.202 16.2799C61.8814 15.6629 61.7211 14.944 61.7211 14.123C61.7211 13.2632 61.879 12.5199 62.1947 11.8933C62.5105 11.2618 62.9501 10.776 63.5136 10.4359C64.082 10.091 64.7475 9.91857 65.5102 9.91857C66.302 9.91857 66.9748 10.1007 67.5286 10.4651C68.0873 10.8294 68.505 11.3492 68.7819 12.0244C69.0637 12.6997 69.1851 13.5036 69.1463 14.4363H67.8346V13.97C67.8201 13.0033 67.6233 12.2819 67.2444 11.8058C66.8655 11.3249 66.302 11.0844 65.5539 11.0844C64.7524 11.0844 64.1427 11.3419 63.7249 11.8568C63.3072 12.3718 63.0983 13.1102 63.0983 14.072C63.0983 14.9998 63.3072 15.7188 63.7249 16.2289C64.1427 16.7389 64.7378 16.994 65.5102 16.994C66.03 16.994 66.4817 16.875 66.8655 16.6369C67.2493 16.3989 67.5505 16.0564 67.7691 15.6095L69.0151 16.0394C68.7091 16.7341 68.2476 17.2733 67.6306 17.6571C67.0185 18.036 66.3312 18.2254 65.5685 18.2254ZM62.6611 14.4363V13.3943H68.4759V14.4363H62.6611Z"
          fill="white"/>
</svg>
