<svg width="100%" viewBox="0 0 222 44" fill="none" xmlns="http://www.w3.org/2000/svg">
    <rect y="0.566895" width="221.044" height="42.5644" rx="21.2822" fill="#FF6160"/>
    <path d="M77.235 26.1099V17.7518H82.1105V18.7849H78.2681V21.4142L81.414 21.4142V22.4474H78.2681V26.1099H77.235ZM83.2686 18.7327V17.6647H84.3018V18.7327H83.2686ZM83.2686 26.1099V19.8413H84.3018V26.1099H83.2686ZM90.5068 26.1099V22.9698C90.5068 22.6718 90.4797 22.3855 90.4255 22.1107C90.3752 21.836 90.2843 21.5903 90.1527 21.3736C90.025 21.153 89.8509 20.9789 89.6303 20.8512C89.4137 20.7235 89.1389 20.6597 88.8061 20.6597C88.5469 20.6597 88.3108 20.7042 88.098 20.7932C87.8891 20.8783 87.7091 21.0099 87.5582 21.1879C87.4073 21.3659 87.2893 21.5903 87.2042 21.8612C87.1229 22.1282 87.0823 22.4435 87.0823 22.8073L86.4032 22.5983C86.4032 21.9908 86.5115 21.4703 86.7282 21.037C86.9488 20.5997 87.2564 20.265 87.6511 20.0328C88.0497 19.7968 88.5179 19.6788 89.0557 19.6788C89.462 19.6788 89.8083 19.7426 90.0947 19.8703C90.381 19.998 90.619 20.1683 90.8086 20.3811C90.9982 20.59 91.1472 20.8261 91.2555 21.0892C91.3639 21.3485 91.4393 21.6135 91.4819 21.8844C91.5283 22.1514 91.5515 22.4048 91.5515 22.6447V26.1099H90.5068ZM86.0375 26.1099V19.8413H86.9662V21.5187H87.0823V26.1099H86.0375ZM93.1766 18.7327V17.6647H94.2098V18.7327H93.1766ZM93.1766 26.1099L93.1766 19.8413H94.2098V26.1099H93.1766ZM98.3195 26.2782C97.5726 26.2782 96.9593 26.1157 96.4795 25.7906C96.0036 25.4617 95.7114 25.0032 95.6031 24.415L96.6594 24.2467C96.7446 24.5872 96.94 24.8581 97.2457 25.0593C97.5514 25.2566 97.9306 25.3553 98.3833 25.3553C98.8128 25.3553 99.1495 25.2663 99.3932 25.0883C99.637 24.9103 99.7589 24.6685 99.7589 24.3628C99.7589 24.1848 99.7183 24.0416 99.637 23.9333C99.5558 23.8211 99.3874 23.7166 99.1321 23.6198C98.8805 23.5231 98.4994 23.407 97.9886 23.2716C97.4353 23.1246 97 22.9717 96.6827 22.8131C96.3654 22.6544 96.139 22.4706 96.0036 22.2617C95.8681 22.0527 95.8004 21.7993 95.8004 21.5013C95.8004 21.1337 95.901 20.8125 96.1022 20.5378C96.3035 20.2592 96.584 20.0444 96.9439 19.8935C97.3076 19.7426 97.7294 19.6672 98.2092 19.6672C98.6851 19.6672 99.1108 19.7426 99.4861 19.8935C99.8614 20.0444 100.163 20.2592 100.392 20.5378C100.624 20.8125 100.761 21.1337 100.804 21.5013L99.7473 21.6928C99.697 21.3562 99.5345 21.0911 99.2597 20.8977C98.9889 20.7042 98.6387 20.6016 98.2092 20.59C97.8029 20.5746 97.472 20.6461 97.2167 20.8048C96.9651 20.9634 96.8394 21.1782 96.8394 21.4491C96.8394 21.6 96.8858 21.7296 96.9787 21.8379C97.0754 21.9463 97.2515 22.0488 97.5069 22.1456C97.7661 22.2423 98.1415 22.3526 98.6329 22.4764C99.1862 22.6157 99.6215 22.7686 99.9388 22.9349C100.26 23.0975 100.488 23.2909 100.624 23.5154C100.759 23.7359 100.827 24.0087 100.827 24.3338C100.827 24.9374 100.604 25.4134 100.159 25.7616C99.7144 26.106 99.1011 26.2782 98.3195 26.2782ZM106.57 26.1099L106.57 22.9698C106.57 22.6718 106.543 22.3855 106.489 22.1107C106.439 21.836 106.348 21.5903 106.216 21.3736C106.089 21.153 105.915 20.9789 105.694 20.8512C105.477 20.7235 105.203 20.6597 104.87 20.6597C104.611 20.6597 104.375 20.7042 104.162 20.7932C103.953 20.8783 103.773 21.0099 103.622 21.1879C103.471 21.3659 103.353 21.5903 103.268 21.8612C103.187 22.1282 103.146 22.4435 103.146 22.8073L102.467 22.5983C102.467 21.9908 102.575 21.4703 102.792 21.037C103.012 20.5997 103.32 20.265 103.715 20.0328C104.113 19.7968 104.582 19.6788 105.119 19.6788C105.526 19.6788 105.872 19.7426 106.158 19.8703C106.445 19.998 106.683 20.1683 106.872 20.3811C107.062 20.59 107.211 20.8261 107.319 21.0892C107.428 21.3485 107.503 21.6135 107.546 21.8844C107.592 22.1514 107.615 22.4048 107.615 22.6447V26.1099H106.57ZM102.101 26.1099V17.7518H103.03V22.3661H103.146V26.1099L102.101 26.1099ZM113.143 26.1099L110.868 19.8413H111.913L113.671 24.7923L115.424 19.8413L116.475 19.8413L114.199 26.1099H113.143ZM119.968 26.284C119.345 26.284 118.807 26.1428 118.354 25.8603C117.905 25.5778 117.559 25.187 117.315 24.6878C117.071 24.1887 116.949 23.616 116.949 22.9698C116.949 22.312 117.073 21.7354 117.321 21.2401C117.569 20.7448 117.919 20.3598 118.372 20.0851C118.824 19.8065 119.356 19.6672 119.968 19.6672C120.595 19.6672 121.134 19.8084 121.587 20.0909C122.04 20.3695 122.386 20.7584 122.626 21.2575C122.87 21.7528 122.992 22.3236 122.992 22.9698C122.992 23.6237 122.87 24.2003 122.626 24.6994C122.382 25.1947 122.034 25.5836 121.581 25.8661C121.129 26.1447 120.591 26.284 119.968 26.284ZM119.968 25.3031C120.618 25.3031 121.101 25.0864 121.419 24.653C121.736 24.2196 121.895 23.6585 121.895 22.9698C121.895 22.2617 121.734 21.6986 121.413 21.2807C121.092 20.859 120.61 20.6481 119.968 20.6481C119.53 20.6481 119.171 20.7468 118.888 20.9441C118.606 21.1414 118.395 21.4142 118.255 21.7625C118.116 22.1107 118.046 22.5132 118.046 22.9698C118.046 23.674 118.209 24.239 118.534 24.6646C118.859 25.0903 119.337 25.3031 119.968 25.3031ZM127.77 26.1099C127.398 26.1834 127.031 26.2124 126.667 26.1969C126.307 26.1853 125.986 26.1137 125.703 25.9822C125.421 25.8467 125.206 25.6378 125.059 25.3553C124.935 25.1077 124.867 24.8581 124.856 24.6066C124.848 24.3512 124.844 24.0629 124.844 23.7417V18.1H125.877V23.6953C125.877 23.9507 125.879 24.1693 125.883 24.3512C125.891 24.533 125.932 24.6898 126.005 24.8213C126.144 25.069 126.365 25.2141 126.667 25.2566C126.972 25.2992 127.34 25.2876 127.77 25.2218V26.1099ZM123.573 20.6945V19.8413H127.77V20.6945L123.573 20.6945ZM129.158 18.7327V17.6647H130.191V18.7327H129.158ZM129.158 26.1099V19.8413H130.191V26.1099H129.158ZM136.396 26.1099V22.9698C136.396 22.6718 136.369 22.3855 136.315 22.1107C136.265 21.836 136.174 21.5903 136.042 21.3736C135.915 21.153 135.741 20.9789 135.52 20.8512C135.303 20.7235 135.029 20.6597 134.696 20.6597C134.437 20.6597 134.201 20.7042 133.988 20.7932C133.779 20.8783 133.599 21.0099 133.448 21.1879C133.297 21.3659 133.179 21.5903 133.094 21.8612C133.013 22.1282 132.972 22.4435 132.972 22.8073L132.293 22.5983C132.293 21.9908 132.401 21.4703 132.618 21.037C132.838 20.5997 133.146 20.265 133.541 20.0328C133.939 19.7968 134.408 19.6788 134.945 19.6788C135.352 19.6788 135.698 19.7426 135.984 19.8703C136.271 19.998 136.509 20.1683 136.698 20.3811C136.888 20.59 137.037 20.8261 137.145 21.0892C137.254 21.3485 137.329 21.6135 137.372 21.8844C137.418 22.1514 137.441 22.4048 137.441 22.6447V26.1099H136.396ZM131.927 26.1099V19.8413L132.856 19.8413V21.5187H132.972V26.1099H131.927ZM141.487 29.07C141.158 29.07 140.837 29.0197 140.523 28.9191C140.21 28.8185 139.921 28.6657 139.658 28.4606C139.399 28.2594 139.182 28.004 139.008 27.6944L139.954 27.1953C140.109 27.5009 140.328 27.7234 140.61 27.8627C140.897 28.002 141.191 28.0717 141.493 28.0717C141.891 28.0717 142.222 27.9982 142.485 27.8511C142.748 27.708 142.942 27.4932 143.065 27.2069C143.193 26.9205 143.255 26.5645 143.251 26.1389V24.4266H143.373V19.8413H144.29V26.1505C144.29 26.3207 144.284 26.4852 144.273 26.6439C144.265 26.8025 144.246 26.9592 144.215 27.114C144.133 27.559 143.973 27.9247 143.733 28.211C143.493 28.5012 143.183 28.716 142.804 28.8553C142.425 28.9984 141.986 29.07 141.487 29.07ZM141.411 26.284C140.827 26.284 140.326 26.1389 139.908 25.8487C139.49 25.5546 139.167 25.158 138.939 24.6588C138.714 24.1596 138.602 23.5966 138.602 22.9698C138.602 22.3429 138.714 21.7799 138.939 21.2807C139.167 20.7816 139.49 20.3888 139.908 20.1025C140.326 19.8123 140.825 19.6672 141.405 19.6672C141.997 19.6672 142.495 19.8103 142.897 20.0967C143.3 20.383 143.603 20.7758 143.808 21.2749C144.017 21.7741 144.122 22.339 144.122 22.9698C144.122 23.5928 144.017 24.1558 143.808 24.6588C143.603 25.158 143.3 25.5546 142.897 25.8487C142.495 26.1389 141.999 26.284 141.411 26.284ZM141.539 25.3379C141.961 25.3379 142.307 25.2373 142.578 25.0361C142.849 24.831 143.048 24.5505 143.176 24.1945C143.307 23.8346 143.373 23.4264 143.373 22.9698C143.373 22.5054 143.307 22.0972 143.176 21.7451C143.048 21.3891 142.851 21.1124 142.584 20.9151C142.317 20.7139 141.978 20.6133 141.568 20.6133C141.142 20.6133 140.79 20.7177 140.512 20.9267C140.237 21.1356 140.032 21.4181 139.896 21.7741C139.765 22.1301 139.699 22.5287 139.699 22.9698C139.699 23.4148 139.767 23.8172 139.902 24.1771C140.038 24.533 140.241 24.8155 140.512 25.0245C140.786 25.2334 141.129 25.3379 141.539 25.3379Z"
          fill="white"/>
</svg>
