<svg width="100%" viewBox="0 0 98 26" fill="none" xmlns="http://www.w3.org/2000/svg">
    <rect x="0.971703" y="1.5386" width="95.5678" height="22.6901" rx="11.3451" fill="white"/>
    <rect x="0.971703" y="1.5386" width="95.5678" height="22.6901" rx="11.3451" stroke="black" stroke-width="1.94341"/>
    <path fill-rule="evenodd" clip-rule="evenodd"
          d="M21.858 9.8974C21.9052 9.13038 22.2352 8.40411 22.7894 7.85764L24.7337 5.94066C26.0323 4.66031 28.2526 5.56711 28.2526 7.3778C28.2526 7.54397 28.2319 7.70952 28.1911 7.87073L27.6772 9.89741H30.2615C31.8032 9.89741 33.053 11.1297 33.053 12.6497C33.053 13.0225 32.9762 13.3913 32.8273 13.7339L31.4194 16.973C30.789 18.4232 29.3427 19.3635 27.7425 19.3635H22.6522L22.649 19.3635H19.4519C19.0101 19.3635 18.6519 19.0103 18.6519 18.5746V10.6862C18.6519 10.2506 19.0101 9.8974 19.4519 9.8974H21.858ZM25.8652 7.05625C26.1557 6.76978 26.6525 6.97267 26.6525 7.3778C26.6525 7.41498 26.6479 7.45202 26.6387 7.48809L25.8763 10.4949C25.8166 10.7306 25.8703 10.9802 26.0219 11.1717C26.1735 11.3632 26.4061 11.4751 26.6525 11.4751H30.2615C30.9195 11.4751 31.4529 12.001 31.4529 12.6497C31.4529 12.8088 31.4201 12.9662 31.3565 13.1125L29.9486 16.3515C29.5704 17.2216 28.7027 17.7858 27.7425 17.7858H23.4522V10.0888C23.4522 9.67039 23.6208 9.2691 23.9209 8.97323L25.8652 7.05625Z"
          fill="black"/>
    <path d="M43.8515 18.0078V7.51342H45.1488V16.7762H50.017V18.0078H43.8515ZM51.3955 8.74506V7.40411H52.6927V8.74506H51.3955ZM51.3955 18.0078V10.137L52.6927 10.137V18.0078H51.3955ZM54.8721 18.0078L54.8794 7.51342H56.1912V13.9267L59.4926 10.137H61.176L57.6998 14.0724L61.5842 18.0078H59.7695L56.1912 14.2182V18.0078H54.8721ZM65.5779 18.2264C64.8054 18.2264 64.13 18.0564 63.5519 17.7163C62.9786 17.3713 62.5316 16.8928 62.2109 16.2806C61.8902 15.6636 61.7299 14.9445 61.7299 14.1234C61.7299 13.2635 61.8878 12.5201 62.2036 11.8934C62.5194 11.2618 62.9591 10.7759 63.5227 10.4358C64.0912 10.0909 64.7568 9.91839 65.5196 9.91839C66.3115 9.91839 66.9844 10.1006 67.5383 10.465C68.097 10.8294 68.5148 11.3492 68.7918 12.0246C69.0736 12.6999 69.195 13.504 69.1562 14.4368H67.8444V13.9704C67.8298 13.0035 67.633 12.2821 67.254 11.8059C66.8751 11.3249 66.3115 11.0844 65.5633 11.0844C64.7616 11.0844 64.1519 11.3419 63.7341 11.8569C63.3162 12.3719 63.1073 13.1104 63.1073 14.0724C63.1073 15.0004 63.3162 15.7195 63.7341 16.2296C64.1519 16.7397 64.7471 16.9948 65.5196 16.9948C66.0394 16.9948 66.4913 16.8758 66.8751 16.6377C67.2589 16.3996 67.5601 16.0571 67.7788 15.6101L69.025 16.0401C68.7189 16.7349 68.2573 17.2742 67.6403 17.658C67.0281 18.037 66.3406 18.2264 65.5779 18.2264ZM62.67 14.4368V13.3947H68.4857V14.4368H62.67Z"
          fill="black"/>
</svg>
