<svg width="100%" viewBox="0 0 496 351" fill="none" xmlns="http://www.w3.org/2000/svg">
    <rect x="0.679199" y="0.882324" width="144.53" height="96.3537" rx="18.0663" fill="white"/>
    <path fill-rule="evenodd" clip-rule="evenodd"
          d="M74.179 19.3909C75.0426 19.5681 75.6469 20.1942 75.6469 20.9117V30.3287H85.3955C86.0836 30.3287 86.7207 30.6207 87.072 31.097C87.4233 31.5733 87.4366 32.1634 87.1071 32.6497L75.4089 49.9142C74.9821 50.544 74.0791 50.8607 73.2155 50.6834C72.3519 50.5062 71.7475 49.8801 71.7475 49.1626V39.7456H61.999C61.3109 39.7456 60.6737 39.4536 60.3225 38.9773C59.9712 38.501 59.9579 37.9109 60.2874 37.4246L71.9856 20.1601C72.4124 19.5303 73.3154 19.2136 74.179 19.3909ZM65.2834 36.6066H73.6972C74.774 36.6066 75.6469 37.3093 75.6469 38.1761V43.0076L82.1111 33.4677H73.6972C72.6204 33.4677 71.7475 32.765 71.7475 31.8982V27.0667L65.2834 36.6066Z"
          fill="#FF6160"/>
    <path d="M44.7316 75.7764H43.1677L46.6816 66.0118H48.3838L51.8977 75.7764H50.3338L47.5732 67.7854H47.4969L44.7316 75.7764ZM44.9938 71.9525H50.0668V73.1922H44.9938V71.9525ZM56.2944 75.9242C55.5856 75.9242 54.9753 75.7637 54.4635 75.4426C53.955 75.1184 53.564 74.6718 53.2907 74.1029C53.0173 73.5339 52.8806 72.8823 52.8806 72.148C52.8806 71.4042 53.0205 70.7479 53.3002 70.1789C53.5799 69.6068 53.974 69.1602 54.4826 68.8391C54.9912 68.5181 55.5903 68.3576 56.2801 68.3576C56.8363 68.3576 57.3322 68.4609 57.7677 68.6675C58.2031 68.8709 58.5544 69.157 58.8214 69.5257C59.0915 69.8944 59.2521 70.3251 59.3029 70.8178H57.9155C57.8392 70.4745 57.6644 70.1789 57.391 69.931C57.1208 69.683 56.7585 69.5591 56.3039 69.5591C55.9066 69.5591 55.5586 69.664 55.2598 69.8738C54.9642 70.0804 54.7337 70.376 54.5684 70.7606C54.4032 71.142 54.3205 71.5934 54.3205 72.1147C54.3205 72.6487 54.4016 73.1095 54.5637 73.4973C54.7258 73.8851 54.9546 74.1855 55.2502 74.3985C55.549 74.6114 55.9003 74.7179 56.3039 74.7179C56.5741 74.7179 56.8189 74.6686 57.0382 74.5701C57.2607 74.4684 57.4466 74.3238 57.596 74.1362C57.7486 73.9487 57.8551 73.723 57.9155 73.4592H59.3029C59.2521 73.9328 59.0979 74.3555 58.8404 74.7274C58.583 75.0993 58.2381 75.3918 57.8058 75.6047C57.3767 75.8177 56.8729 75.9242 56.2944 75.9242ZM64.3803 68.4529V69.5972H60.38V68.4529H64.3803ZM61.4528 66.6984H62.8784V73.6261C62.8784 73.9026 62.9197 74.1108 63.0023 74.2507C63.085 74.3873 63.1915 74.4811 63.3218 74.532C63.4553 74.5796 63.5999 74.6035 63.7557 74.6035C63.8701 74.6035 63.9702 74.5955 64.056 74.5796C64.1419 74.5637 64.2086 74.551 64.2563 74.5415L64.5138 75.7192C64.4311 75.7509 64.3135 75.7827 64.1609 75.8145C64.0084 75.8495 63.8176 75.8685 63.5888 75.8717C63.2137 75.8781 62.8641 75.8113 62.5399 75.6715C62.2156 75.5316 61.9534 75.3155 61.7532 75.023C61.5529 74.7306 61.4528 74.3635 61.4528 73.9217V66.6984ZM66.0915 75.7764V68.4529H67.5171V75.7764H66.0915ZM66.8114 67.323C66.5635 67.323 66.3505 67.2403 66.1725 67.075C65.9977 66.9066 65.9103 66.7063 65.9103 66.4743C65.9103 66.2391 65.9977 66.0388 66.1725 65.8735C66.3505 65.7051 66.5635 65.6208 66.8114 65.6208C67.0594 65.6208 67.2707 65.7051 67.4456 65.8735C67.6236 66.0388 67.7126 66.2391 67.7126 66.4743C67.7126 66.7063 67.6236 66.9066 67.4456 67.075C67.2707 67.2403 67.0594 67.323 66.8114 67.323ZM75.8342 68.4529L73.1785 75.7764H71.6528L68.9923 68.4529H70.5228L72.3775 74.0885H72.4538L74.3037 68.4529H75.8342ZM77.3082 75.7764V68.4529H78.7338V75.7764H77.3082ZM78.0281 67.323C77.7802 67.323 77.5672 67.2403 77.3892 67.075C77.2144 66.9066 77.127 66.7063 77.127 66.4743C77.127 66.2391 77.2144 66.0388 77.3892 65.8735C77.5672 65.7051 77.7802 65.6208 78.0281 65.6208C78.2761 65.6208 78.4874 65.7051 78.6623 65.8735C78.8403 66.0388 78.9293 66.2391 78.9293 66.4743C78.9293 66.7063 78.8403 66.9066 78.6623 67.075C78.4874 67.2403 78.2761 67.323 78.0281 67.323ZM84.2045 68.4529V69.5972H80.2042V68.4529H84.2045ZM81.277 66.6984H82.7026V73.6261C82.7026 73.9026 82.7439 74.1108 82.8266 74.2507C82.9092 74.3873 83.0157 74.4811 83.146 74.532C83.2795 74.5796 83.4241 74.6035 83.5799 74.6035C83.6943 74.6035 83.7944 74.5955 83.8803 74.5796C83.9661 74.5637 84.0328 74.551 84.0805 74.5415L84.338 75.7192C84.2553 75.7509 84.1377 75.7827 83.9851 75.8145C83.8326 75.8495 83.6419 75.8685 83.413 75.8717C83.0379 75.8781 82.6883 75.8113 82.3641 75.6715C82.0399 75.5316 81.7776 75.3155 81.5774 75.023C81.3771 74.7306 81.277 74.3635 81.277 73.9217V66.6984ZM85.9157 75.7764V68.4529H87.3413V75.7764H85.9157ZM86.6356 67.323C86.3877 67.323 86.1748 67.2403 85.9968 67.075C85.8219 66.9066 85.7345 66.7063 85.7345 66.4743C85.7345 66.2391 85.8219 66.0388 85.9968 65.8735C86.1748 65.7051 86.3877 65.6208 86.6356 65.6208C86.8836 65.6208 87.0949 65.7051 87.2698 65.8735C87.4478 66.0388 87.5368 66.2391 87.5368 66.4743C87.5368 66.7063 87.4478 66.9066 87.2698 67.075C87.0949 67.2403 86.8836 67.323 86.6356 67.323ZM92.5497 75.9242C91.8282 75.9242 91.2068 75.77 90.6855 75.4617C90.1674 75.1502 89.7669 74.7131 89.484 74.1505C89.2043 73.5847 89.0644 72.922 89.0644 72.1623C89.0644 71.4122 89.2043 70.751 89.484 70.1789C89.7669 69.6068 90.161 69.1602 90.6664 68.8391C91.175 68.5181 91.7694 68.3576 92.4496 68.3576C92.8628 68.3576 93.2633 68.4259 93.6511 68.5626C94.0389 68.6993 94.387 68.9138 94.6953 69.2063C95.0036 69.4987 95.2468 69.8785 95.4248 70.3458C95.6028 70.8099 95.6918 71.374 95.6918 72.0384V72.5438H89.8702V71.4758H94.2948C94.2948 71.1007 94.2185 70.7685 94.0659 70.4793C93.9133 70.1869 93.6988 69.9564 93.4223 69.7879C93.1489 69.6195 92.8279 69.5352 92.4592 69.5352C92.0587 69.5352 91.709 69.6338 91.4102 69.8309C91.1146 70.0247 90.8858 70.279 90.7237 70.5937C90.5647 70.9052 90.4853 71.2437 90.4853 71.6093V72.4436C90.4853 72.9331 90.5711 73.3495 90.7427 73.6928C90.9175 74.0361 91.1607 74.2983 91.4722 74.4795C91.7837 74.6575 92.1477 74.7465 92.564 74.7465C92.8342 74.7465 93.0806 74.7084 93.3031 74.6321C93.5256 74.5526 93.7179 74.435 93.88 74.2793C94.0421 74.1235 94.166 73.9312 94.2519 73.7024L95.6012 73.9455C95.4931 74.3428 95.2992 74.6909 95.0195 74.9897C94.743 75.2853 94.3949 75.5157 93.9753 75.681C93.5589 75.8431 93.0837 75.9242 92.5497 75.9242ZM102.896 70.2409L101.603 70.4697C101.549 70.3045 101.464 70.1471 101.346 69.9977C101.232 69.8483 101.076 69.726 100.879 69.6306C100.682 69.5352 100.435 69.4876 100.14 69.4876C99.7361 69.4876 99.3991 69.5782 99.129 69.7593C98.8588 69.9373 98.7237 70.1678 98.7237 70.4507C98.7237 70.6954 98.8143 70.8925 98.9955 71.0419C99.1766 71.1913 99.4691 71.3137 99.8727 71.409L101.036 71.676C101.71 71.8318 102.212 72.0717 102.543 72.396C102.873 72.7202 103.039 73.1413 103.039 73.6594C103.039 74.0981 102.911 74.489 102.657 74.8323C102.406 75.1724 102.055 75.4394 101.603 75.6333C101.155 75.8272 100.636 75.9242 100.044 75.9242C99.2243 75.9242 98.5552 75.7493 98.0371 75.3997C97.519 75.0469 97.2011 74.5463 97.0835 73.8978L98.4615 73.688C98.5473 74.0472 98.7237 74.319 98.9907 74.5033C99.2577 74.6845 99.6057 74.7751 100.035 74.7751C100.502 74.7751 100.876 74.6782 101.155 74.4843C101.435 74.2872 101.575 74.0472 101.575 73.7643C101.575 73.5355 101.489 73.3432 101.317 73.1874C101.149 73.0317 100.89 72.9141 100.54 72.8346L99.3006 72.5628C98.6172 72.4071 98.1118 72.1592 97.7844 71.819C97.4602 71.4789 97.2981 71.0482 97.2981 70.527C97.2981 70.0947 97.4189 69.7164 97.6605 69.3922C97.902 69.068 98.2358 68.8153 98.6617 68.6341C99.0876 68.4498 99.5755 68.3576 100.125 68.3576C100.917 68.3576 101.54 68.5292 101.994 68.8725C102.449 69.2126 102.749 69.6687 102.896 70.2409Z"
          fill="#212121"/>
    <rect x="175.824" y="0.882324" width="146.036" height="96.3537" rx="18.0663" fill="white"/>
    <path d="M246.605 20.6915C246.605 21.9982 245.44 23.0575 244.002 23.0575C242.565 23.0575 241.399 21.9982 241.399 20.6915C241.399 19.3847 242.565 18.3254 244.002 18.3254C245.44 18.3254 246.605 19.3847 246.605 20.6915Z"
          fill="#FF6160"/>
    <path d="M243.135 28.5784C243.135 29.8851 241.969 30.9444 240.532 30.9444C239.095 30.9444 237.929 29.8851 237.929 28.5784C237.929 27.2716 239.095 26.2123 240.532 26.2123C241.969 26.2123 243.135 27.2716 243.135 28.5784Z"
          fill="#FF6160"/>
    <path d="M252.678 23.0575C254.115 23.0575 255.28 21.9982 255.28 20.6915C255.28 19.3847 254.115 18.3254 252.678 18.3254C251.24 18.3254 250.075 19.3847 250.075 20.6915C250.075 21.9982 251.24 23.0575 252.678 23.0575Z"
          fill="#FF6160"/>
    <path fill-rule="evenodd" clip-rule="evenodd"
          d="M248.34 12.0159C238.757 12.0159 230.989 19.078 230.989 27.7897V28.4146C230.989 36.7811 238.449 43.5635 247.652 43.5635H249.372C250.024 43.5635 250.672 43.4679 251.29 43.2805C254.507 42.3057 255.084 38.3937 252.262 36.6837C251.764 36.382 251.999 35.6766 252.598 35.6766H257.016C261.807 35.6766 265.691 32.1455 265.691 27.7897C265.691 19.078 257.923 12.0159 248.34 12.0159ZM234.459 27.7897C234.459 20.8204 240.674 15.1706 248.34 15.1706C256.006 15.1706 262.221 20.8204 262.221 27.7897C262.221 30.4032 259.89 32.5218 257.016 32.5218H252.598C248.566 32.5218 246.983 37.2755 250.337 39.3087C250.756 39.5624 250.671 40.143 250.193 40.2876C249.928 40.3678 249.651 40.4087 249.372 40.4087H247.652C240.366 40.4087 234.459 35.0388 234.459 28.4146V27.7897Z"
          fill="#FF6160"/>
    <path d="M225.669 62.0185H224.181C224.124 61.7006 224.017 61.4209 223.862 61.1793C223.706 60.9378 223.515 60.7328 223.29 60.5643C223.064 60.3958 222.811 60.2687 222.532 60.1829C222.255 60.097 221.961 60.0541 221.649 60.0541C221.087 60.0541 220.583 60.1956 220.138 60.4785C219.696 60.7614 219.347 61.1762 219.089 61.7229C218.835 62.2696 218.708 62.9371 218.708 63.7254C218.708 64.52 218.835 65.1907 219.089 65.7374C219.347 66.2841 219.698 66.6973 220.143 66.9771C220.588 67.2568 221.088 67.3966 221.645 67.3966C221.953 67.3966 222.245 67.3553 222.522 67.2727C222.802 67.1868 223.054 67.0613 223.28 66.896C223.506 66.7307 223.696 66.5289 223.852 66.2905C224.011 66.0489 224.121 65.7724 224.181 65.4609L225.669 65.4656C225.589 65.9456 225.435 66.3874 225.206 66.7911C224.981 67.1916 224.69 67.5381 224.334 67.8305C223.981 68.1198 223.577 68.3438 223.123 68.5028C222.668 68.6617 222.172 68.7412 221.635 68.7412C220.79 68.7412 220.036 68.5409 219.375 68.1404C218.714 67.7367 218.193 67.1598 217.811 66.4097C217.433 65.6595 217.244 64.7648 217.244 63.7254C217.244 62.6828 217.435 61.788 217.816 61.0411C218.198 60.2909 218.719 59.7156 219.38 59.3151C220.041 58.9114 220.793 58.7096 221.635 58.7096C222.153 58.7096 222.636 58.7843 223.085 58.9337C223.536 59.0799 223.941 59.296 224.3 59.5821C224.66 59.865 224.957 60.2115 225.192 60.6215C225.427 61.0284 225.586 61.494 225.669 62.0185ZM228.877 58.8431V68.6077H227.452V58.8431H228.877ZM233.06 68.7698C232.596 68.7698 232.177 68.684 231.802 68.5123C231.427 68.3375 231.129 68.0848 230.91 67.7542C230.694 67.4236 230.586 67.0184 230.586 66.5384C230.586 66.1252 230.665 65.7851 230.824 65.5181C230.983 65.2511 231.198 65.0397 231.468 64.884C231.738 64.7282 232.04 64.6106 232.374 64.5312C232.708 64.4517 233.048 64.3913 233.394 64.35C233.833 64.2991 234.189 64.2578 234.462 64.226C234.736 64.191 234.934 64.1354 235.058 64.0591C235.182 63.9828 235.244 63.8589 235.244 63.6872V63.6539C235.244 63.2375 235.127 62.9148 234.891 62.686C234.659 62.4571 234.313 62.3427 233.852 62.3427C233.372 62.3427 232.994 62.4492 232.717 62.6622C232.444 62.8719 232.255 63.1056 232.15 63.363L230.81 63.0579C230.969 62.6129 231.201 62.2537 231.506 61.9803C231.814 61.7038 232.169 61.5036 232.569 61.3796C232.97 61.2525 233.391 61.1889 233.833 61.1889C234.125 61.1889 234.435 61.2238 234.763 61.2938C235.093 61.3605 235.401 61.4845 235.688 61.6657C235.977 61.8468 236.214 62.1059 236.398 62.4428C236.582 62.7766 236.674 63.2105 236.674 63.7445V68.6077H235.282V67.6064H235.225C235.133 67.7908 234.995 67.972 234.81 68.15C234.626 68.328 234.389 68.4758 234.1 68.5934C233.811 68.711 233.464 68.7698 233.06 68.7698ZM233.37 67.6255C233.765 67.6255 234.101 67.5476 234.381 67.3919C234.664 67.2361 234.879 67.0327 235.025 66.7816C235.174 66.5273 235.249 66.2555 235.249 65.9663V65.0222C235.198 65.0731 235.1 65.1208 234.953 65.1653C234.81 65.2066 234.647 65.2431 234.462 65.2749C234.278 65.3035 234.098 65.3306 233.923 65.356C233.749 65.3782 233.602 65.3973 233.485 65.4132C233.208 65.4482 232.956 65.507 232.727 65.5896C232.501 65.6723 232.32 65.7915 232.183 65.9472C232.05 66.0998 231.983 66.3032 231.983 66.5575C231.983 66.9103 232.113 67.1773 232.374 67.3585C232.635 67.5365 232.967 67.6255 233.37 67.6255ZM244.195 63.0722L242.903 63.301C242.849 63.1358 242.763 62.9784 242.646 62.829C242.531 62.6796 242.376 62.5573 242.179 62.4619C241.981 62.3665 241.735 62.3189 241.44 62.3189C241.036 62.3189 240.699 62.4095 240.429 62.5906C240.159 62.7686 240.023 62.9991 240.023 63.282C240.023 63.5267 240.114 63.7238 240.295 63.8732C240.476 64.0226 240.769 64.145 241.173 64.2403L242.336 64.5073C243.01 64.6631 243.512 64.903 243.843 65.2273C244.173 65.5515 244.338 65.9726 244.338 66.4907C244.338 66.9294 244.211 67.3203 243.957 67.6636C243.706 68.0037 243.355 68.2707 242.903 68.4646C242.455 68.6585 241.935 68.7555 241.344 68.7555C240.524 68.7555 239.855 68.5806 239.337 68.231C238.819 67.8782 238.501 67.3776 238.383 66.7291L239.761 66.5193C239.847 66.8785 240.023 67.1503 240.29 67.3346C240.557 67.5158 240.906 67.6064 241.335 67.6064C241.802 67.6064 242.175 67.5095 242.455 67.3156C242.735 67.1185 242.875 66.8785 242.875 66.5956C242.875 66.3668 242.789 66.1745 242.617 66.0187C242.449 65.863 242.19 65.7454 241.84 65.6659L240.6 65.3941C239.917 65.2384 239.412 64.9905 239.084 64.6503C238.76 64.3102 238.598 63.8795 238.598 63.3583C238.598 62.926 238.719 62.5477 238.96 62.2235C239.202 61.8993 239.536 61.6466 239.961 61.4654C240.387 61.2811 240.875 61.1889 241.425 61.1889C242.217 61.1889 242.84 61.3605 243.294 61.7038C243.749 62.0439 244.049 62.5 244.195 63.0722ZM251.528 63.0722L250.236 63.301C250.182 63.1358 250.096 62.9784 249.978 62.829C249.864 62.6796 249.708 62.5573 249.511 62.4619C249.314 62.3665 249.068 62.3189 248.772 62.3189C248.368 62.3189 248.031 62.4095 247.761 62.5906C247.491 62.7686 247.356 62.9991 247.356 63.282C247.356 63.5267 247.447 63.7238 247.628 63.8732C247.809 64.0226 248.101 64.145 248.505 64.2403L249.668 64.5073C250.342 64.6631 250.844 64.903 251.175 65.2273C251.506 65.5515 251.671 65.9726 251.671 66.4907C251.671 66.9294 251.544 67.3203 251.289 67.6636C251.038 68.0037 250.687 68.2707 250.236 68.4646C249.788 68.6585 249.268 68.7555 248.677 68.7555C247.857 68.7555 247.188 68.5806 246.669 68.231C246.151 67.8782 245.833 67.3776 245.716 66.7291L247.094 66.5193C247.18 66.8785 247.356 67.1503 247.623 67.3346C247.89 67.5158 248.238 67.6064 248.667 67.6064C249.134 67.6064 249.508 67.5095 249.788 67.3156C250.067 67.1185 250.207 66.8785 250.207 66.5956C250.207 66.3668 250.121 66.1745 249.95 66.0187C249.781 65.863 249.522 65.7454 249.173 65.6659L247.933 65.3941C247.25 65.2384 246.744 64.9905 246.417 64.6503C246.093 64.3102 245.93 63.8795 245.93 63.3583C245.93 62.926 246.051 62.5477 246.293 62.2235C246.534 61.8993 246.868 61.6466 247.294 61.4654C247.72 61.2811 248.208 61.1889 248.758 61.1889C249.549 61.1889 250.172 61.3605 250.627 61.7038C251.081 62.0439 251.382 62.5 251.528 63.0722ZM256.529 68.7555C255.807 68.7555 255.186 68.6013 254.665 68.293C254.147 67.9815 253.746 67.5444 253.463 66.9818C253.183 66.416 253.044 65.7533 253.044 64.9936C253.044 64.2435 253.183 63.5823 253.463 63.0102C253.746 62.4381 254.14 61.9915 254.646 61.6704C255.154 61.3494 255.749 61.1889 256.429 61.1889C256.842 61.1889 257.243 61.2572 257.63 61.3939C258.018 61.5306 258.366 61.7451 258.674 62.0376C258.983 62.33 259.226 62.7098 259.404 63.1771C259.582 63.6412 259.671 64.2053 259.671 64.8697V65.3751H253.849V64.3071H258.274C258.274 63.932 258.198 63.5998 258.045 63.3106C257.893 63.0182 257.678 62.7877 257.401 62.6192C257.128 62.4508 256.807 62.3665 256.438 62.3665C256.038 62.3665 255.688 62.4651 255.389 62.6622C255.094 62.856 254.865 63.1103 254.703 63.425C254.544 63.7365 254.464 64.075 254.464 64.4406V65.2749C254.464 65.7644 254.55 66.1808 254.722 66.5241C254.897 66.8674 255.14 67.1296 255.451 67.3108C255.763 67.4888 256.127 67.5778 256.543 67.5778C256.813 67.5778 257.06 67.5397 257.282 67.4634C257.505 67.3839 257.697 67.2663 257.859 67.1106C258.021 66.9548 258.145 66.7625 258.231 66.5336L259.58 66.7768C259.472 67.1741 259.278 67.5222 258.999 67.821C258.722 68.1166 258.374 68.347 257.955 68.5123C257.538 68.6744 257.063 68.7555 256.529 68.7555ZM266.875 63.0722L265.583 63.301C265.529 63.1358 265.443 62.9784 265.325 62.829C265.211 62.6796 265.055 62.5573 264.858 62.4619C264.661 62.3665 264.415 62.3189 264.119 62.3189C263.715 62.3189 263.378 62.4095 263.108 62.5906C262.838 62.7686 262.703 62.9991 262.703 63.282C262.703 63.5267 262.793 63.7238 262.975 63.8732C263.156 64.0226 263.448 64.145 263.852 64.2403L265.015 64.5073C265.689 64.6631 266.191 64.903 266.522 65.2273C266.852 65.5515 267.018 65.9726 267.018 66.4907C267.018 66.9294 266.891 67.3203 266.636 67.6636C266.385 68.0037 266.034 68.2707 265.583 68.4646C265.134 68.6585 264.615 68.7555 264.024 68.7555C263.203 68.7555 262.534 68.5806 262.016 68.231C261.498 67.8782 261.18 67.3776 261.063 66.7291L262.441 66.5193C262.526 66.8785 262.703 67.1503 262.97 67.3346C263.237 67.5158 263.585 67.6064 264.014 67.6064C264.481 67.6064 264.855 67.5095 265.134 67.3156C265.414 67.1185 265.554 66.8785 265.554 66.5956C265.554 66.3668 265.468 66.1745 265.297 66.0187C265.128 65.863 264.869 65.7454 264.519 65.6659L263.28 65.3941C262.596 65.2384 262.091 64.9905 261.764 64.6503C261.439 64.3102 261.277 63.8795 261.277 63.3583C261.277 62.926 261.398 62.5477 261.64 62.2235C261.881 61.8993 262.215 61.6466 262.641 61.4654C263.067 61.2811 263.555 61.1889 264.105 61.1889C264.896 61.1889 265.519 61.3605 265.974 61.7038C266.428 62.0439 266.729 62.5 266.875 63.0722ZM275.249 68.7459C274.594 68.7459 274.03 68.6267 273.556 68.3883C273.086 68.15 272.723 67.8257 272.469 67.4157C272.215 67.0025 272.088 66.5352 272.088 66.014C272.088 65.6166 272.17 65.2638 272.335 64.9555C272.501 64.644 272.731 64.3563 273.027 64.0925C273.322 63.8287 273.664 63.5633 274.052 63.2963L275.625 62.1854C275.892 62.0105 276.1 61.8262 276.25 61.6323C276.399 61.4352 276.474 61.1921 276.474 60.9028C276.474 60.674 276.375 60.4546 276.178 60.2448C275.981 60.0351 275.717 59.9302 275.387 59.9302C275.158 59.9302 274.956 59.9858 274.781 60.097C274.61 60.2083 274.475 60.3513 274.376 60.5262C274.281 60.6978 274.233 60.879 274.233 61.0697C274.233 61.2922 274.293 61.5163 274.414 61.742C274.538 61.9676 274.697 62.2013 274.891 62.4428C275.085 62.6812 275.288 62.9292 275.501 63.1866L280.036 68.6077H278.424L274.672 64.1974C274.357 63.8255 274.065 63.4759 273.794 63.1485C273.524 62.8179 273.305 62.4842 273.136 62.1472C272.971 61.8071 272.889 61.44 272.889 61.0458C272.889 60.5977 272.99 60.2003 273.194 59.8539C273.4 59.5042 273.688 59.2309 274.057 59.0338C274.425 58.8367 274.858 58.7382 275.354 58.7382C275.856 58.7382 276.286 58.8367 276.646 59.0338C277.008 59.2277 277.286 59.4868 277.48 59.811C277.677 60.132 277.776 60.4832 277.776 60.8647C277.776 61.3287 277.66 61.7388 277.428 62.0948C277.199 62.4476 276.882 62.7718 276.479 63.0674L274.519 64.5121C274.138 64.7918 273.872 65.0683 273.723 65.3417C273.577 65.6119 273.504 65.8232 273.504 65.9758C273.504 66.2555 273.575 66.5146 273.718 66.753C273.864 66.9914 274.068 67.1821 274.328 67.3251C274.592 67.4681 274.901 67.5397 275.253 67.5397C275.616 67.5397 275.969 67.4618 276.312 67.306C276.658 67.1471 276.971 66.9198 277.251 66.6242C277.534 66.3286 277.758 65.9742 277.923 65.561C278.089 65.1478 278.171 64.6853 278.171 64.1736H279.459C279.459 64.8029 279.387 65.3353 279.244 65.7708C279.101 66.2031 278.928 66.5559 278.724 66.8293C278.524 67.0994 278.335 67.3108 278.157 67.4634C278.1 67.5142 278.046 67.5651 277.995 67.616C277.944 67.6668 277.89 67.7177 277.833 67.7685C277.502 68.1023 277.102 68.3486 276.631 68.5075C276.164 68.6665 275.703 68.7459 275.249 68.7459ZM214.803 84.6077L212.095 74.8431H213.644L215.547 82.4049H215.637L217.616 74.8431H219.151L221.13 82.4097H221.22L223.118 74.8431H224.672L221.959 84.6077H220.477L218.422 77.2938H218.345L216.29 84.6077H214.803ZM228.399 84.7555C227.713 84.7555 227.113 84.5981 226.602 84.2835C226.09 83.9688 225.693 83.5285 225.41 82.9628C225.127 82.397 224.985 81.7358 224.985 80.9793C224.985 80.2197 225.127 79.5553 225.41 78.9864C225.693 78.4174 226.09 77.9756 226.602 77.6609C227.113 77.3462 227.713 77.1889 228.399 77.1889C229.086 77.1889 229.685 77.3462 230.197 77.6609C230.708 77.9756 231.106 78.4174 231.389 78.9864C231.671 79.5553 231.813 80.2197 231.813 80.9793C231.813 81.7358 231.671 82.397 231.389 82.9628C231.106 83.5285 230.708 83.9688 230.197 84.2835C229.685 84.5981 229.086 84.7555 228.399 84.7555ZM228.404 83.5587C228.849 83.5587 229.218 83.4411 229.51 83.2059C229.802 82.9707 230.019 82.6576 230.158 82.2666C230.301 81.8757 230.373 81.445 230.373 80.9746C230.373 80.5073 230.301 80.0782 230.158 79.6872C230.019 79.2931 229.802 78.9768 229.51 78.7384C229.218 78.5 228.849 78.3808 228.404 78.3808C227.956 78.3808 227.584 78.5 227.288 78.7384C226.996 78.9768 226.778 79.2931 226.635 79.6872C226.495 80.0782 226.425 80.5073 226.425 80.9746C226.425 81.445 226.495 81.8757 226.635 82.2666C226.778 82.6576 226.996 82.9707 227.288 83.2059C227.584 83.4411 227.956 83.5587 228.404 83.5587ZM233.538 84.6077V77.2842H234.916V78.4476H234.993C235.126 78.0535 235.361 77.7435 235.698 77.5179C236.038 77.289 236.423 77.1746 236.852 77.1746C236.941 77.1746 237.046 77.1778 237.167 77.1841C237.291 77.1905 237.388 77.1984 237.458 77.208V78.5716C237.4 78.5557 237.299 78.5382 237.152 78.5191C237.006 78.4969 236.86 78.4857 236.714 78.4857C236.377 78.4857 236.077 78.5573 235.813 78.7003C235.552 78.8402 235.345 79.0356 235.193 79.2867C235.04 79.5347 234.964 79.8176 234.964 80.1354V84.6077H233.538ZM240.137 82.1236L240.127 80.3833H240.375L243.293 77.2842H245L241.672 80.8125H241.448L240.137 82.1236ZM238.826 84.6077V74.8431H240.251V84.6077H238.826ZM243.45 84.6077L240.828 81.1271L241.81 80.1307L245.2 84.6077H243.45ZM251.921 79.0722L250.629 79.301C250.575 79.1358 250.489 78.9784 250.372 78.829C250.257 78.6796 250.101 78.5573 249.904 78.4619C249.707 78.3665 249.461 78.3189 249.165 78.3189C248.762 78.3189 248.425 78.4095 248.155 78.5906C247.884 78.7686 247.749 78.9991 247.749 79.282C247.749 79.5267 247.84 79.7238 248.021 79.8732C248.202 80.0226 248.495 80.145 248.898 80.2403L250.062 80.5073C250.736 80.6631 251.238 80.903 251.568 81.2273C251.899 81.5515 252.064 81.9726 252.064 82.4907C252.064 82.9294 251.937 83.3203 251.683 83.6636C251.432 84.0037 251.08 84.2707 250.629 84.4646C250.181 84.6585 249.661 84.7555 249.07 84.7555C248.25 84.7555 247.581 84.5806 247.063 84.231C246.545 83.8782 246.227 83.3776 246.109 82.7291L247.487 82.5193C247.573 82.8785 247.749 83.1503 248.016 83.3346C248.283 83.5158 248.631 83.6064 249.061 83.6064C249.528 83.6064 249.901 83.5095 250.181 83.3156C250.461 83.1185 250.601 82.8785 250.601 82.5956C250.601 82.3668 250.515 82.1745 250.343 82.0187C250.175 81.863 249.916 81.7454 249.566 81.6659L248.326 81.3941C247.643 81.2384 247.137 80.9905 246.81 80.6503C246.486 80.3102 246.324 79.8795 246.324 79.3583C246.324 78.926 246.445 78.5477 246.686 78.2235C246.928 77.8993 247.261 77.6466 247.687 77.4654C248.113 77.2811 248.601 77.1889 249.151 77.1889C249.943 77.1889 250.566 77.3605 251.02 77.7038C251.475 78.0439 251.775 78.5 251.921 79.0722ZM255.192 80.2594V84.6077H253.766V74.8431H255.172V78.4762H255.263C255.435 78.0821 255.697 77.769 256.05 77.5369C256.403 77.3049 256.863 77.1889 257.432 77.1889C257.935 77.1889 258.373 77.2922 258.748 77.4988C259.127 77.7054 259.419 78.0137 259.626 78.4238C259.835 78.8306 259.94 79.3392 259.94 79.9495V84.6077H258.515V80.1211C258.515 79.5839 258.376 79.1675 258.1 78.8719C257.823 78.5732 257.439 78.4238 256.946 78.4238C256.609 78.4238 256.307 78.4953 256.04 78.6383C255.776 78.7813 255.568 78.9911 255.416 79.2677C255.266 79.541 255.192 79.8716 255.192 80.2594ZM265.062 84.7555C264.375 84.7555 263.776 84.5981 263.264 84.2835C262.753 83.9688 262.355 83.5285 262.072 82.9628C261.789 82.397 261.648 81.7358 261.648 80.9793C261.648 80.2197 261.789 79.5553 262.072 78.9864C262.355 78.4174 262.753 77.9756 263.264 77.6609C263.776 77.3462 264.375 77.1889 265.062 77.1889C265.748 77.1889 266.348 77.3462 266.859 77.6609C267.371 77.9756 267.768 78.4174 268.051 78.9864C268.334 79.5553 268.476 80.2197 268.476 80.9793C268.476 81.7358 268.334 82.397 268.051 82.9628C267.768 83.5285 267.371 83.9688 266.859 84.2835C266.348 84.5981 265.748 84.7555 265.062 84.7555ZM265.067 83.5587C265.512 83.5587 265.88 83.4411 266.173 83.2059C266.465 82.9707 266.681 82.6576 266.821 82.2666C266.964 81.8757 267.036 81.445 267.036 80.9746C267.036 80.5073 266.964 80.0782 266.821 79.6872C266.681 79.2931 266.465 78.9768 266.173 78.7384C265.88 78.5 265.512 78.3808 265.067 78.3808C264.618 78.3808 264.246 78.5 263.951 78.7384C263.658 78.9768 263.441 79.2931 263.298 79.6872C263.158 80.0782 263.088 80.5073 263.088 80.9746C263.088 81.445 263.158 81.8757 263.298 82.2666C263.441 82.6576 263.658 82.9707 263.951 83.2059C264.246 83.4411 264.618 83.5587 265.067 83.5587ZM270.201 87.354V77.2842L271.593 77.2842V78.4714H271.713C271.795 78.3189 271.914 78.1425 272.07 77.9422C272.226 77.742 272.442 77.5671 272.719 77.4177C272.995 77.2652 273.361 77.1889 273.815 77.1889C274.406 77.1889 274.934 77.3383 275.398 77.6371C275.862 77.9358 276.226 78.3665 276.49 78.9292C276.757 79.4918 276.89 80.1688 276.89 80.9603C276.89 81.7517 276.758 82.4303 276.495 82.9961C276.231 83.5587 275.868 83.9926 275.408 84.2978C274.947 84.5997 274.421 84.7507 273.829 84.7507C273.384 84.7507 273.02 84.676 272.738 84.5266C272.458 84.3772 272.239 84.2024 272.08 84.0021C271.921 83.8019 271.798 83.6239 271.713 83.4681H271.627V87.354L270.201 87.354ZM271.598 80.946C271.598 81.4609 271.673 81.9122 271.822 82.3C271.972 82.6878 272.188 82.9914 272.471 83.2107C272.753 83.4268 273.1 83.5349 273.51 83.5349C273.936 83.5349 274.292 83.4221 274.578 83.1964C274.864 82.9675 275.08 82.6576 275.226 82.2666C275.376 81.8757 275.45 81.4355 275.45 80.946C275.45 80.4628 275.377 80.0289 275.231 79.6443C275.088 79.2597 274.872 78.9562 274.583 78.7337C274.297 78.5112 273.939 78.3999 273.51 78.3999C273.097 78.3999 272.747 78.5064 272.461 78.7194C272.178 78.9323 271.964 79.2295 271.817 79.611C271.671 79.9924 271.598 80.4374 271.598 80.946ZM284.11 79.0722L282.818 79.301C282.764 79.1358 282.678 78.9784 282.56 78.829C282.446 78.6796 282.29 78.5573 282.093 78.4619C281.896 78.3665 281.649 78.3189 281.354 78.3189C280.95 78.3189 280.613 78.4095 280.343 78.5906C280.073 78.7686 279.938 78.9991 279.938 79.282C279.938 79.5267 280.028 79.7238 280.21 79.8732C280.391 80.0226 280.683 80.145 281.087 80.2403L282.25 80.5073C282.924 80.6631 283.426 80.903 283.757 81.2273C284.087 81.5515 284.253 81.9726 284.253 82.4907C284.253 82.9294 284.126 83.3203 283.871 83.6636C283.62 84.0037 283.269 84.2707 282.818 84.4646C282.369 84.6585 281.85 84.7555 281.259 84.7555C280.438 84.7555 279.769 84.5806 279.251 84.231C278.733 83.8782 278.415 83.3776 278.298 82.7291L279.676 82.5193C279.761 82.8785 279.938 83.1503 280.205 83.3346C280.472 83.5158 280.82 83.6064 281.249 83.6064C281.716 83.6064 282.09 83.5095 282.369 83.3156C282.649 83.1185 282.789 82.8785 282.789 82.5956C282.789 82.3668 282.703 82.1745 282.532 82.0187C282.363 81.863 282.104 81.7454 281.754 81.6659L280.515 81.3941C279.831 81.2384 279.326 80.9905 278.999 80.6503C278.674 80.3102 278.512 79.8795 278.512 79.3583C278.512 78.926 278.633 78.5477 278.875 78.2235C279.116 77.8993 279.45 77.6466 279.876 77.4654C280.302 77.2811 280.79 77.1889 281.34 77.1889C282.131 77.1889 282.754 77.3605 283.209 77.7038C283.663 78.0439 283.963 78.5 284.11 79.0722Z"
          fill="#212121"/>
    <rect x="350.968" y="0.88208" width="145.032" height="96.3537" rx="18.0663" fill="white"/>
    <mask id="path-8-inside-1_84_2445" fill="white">
        <path d="M422.258 19.4907C421.672 19.8452 420.001 21.787 419.095 23.1567C418.064 24.7117 417.246 26.3876 416.864 27.6848L416.722 28.1924L416.02 27.8701C415.185 27.4914 413.798 27.0644 412.652 26.8308C411.941 26.6857 411.443 26.6535 409.204 26.6213C406.272 26.5729 406.192 26.589 405.818 27.1369C405.641 27.3947 405.632 27.4914 405.667 29.7635C405.703 31.9873 405.721 32.1726 405.952 33.0831C406.254 34.2593 406.68 35.3391 407.24 36.3059L407.658 37.0391L406.458 37.5709C404.539 38.4169 403.357 39.142 401.589 40.5601C400.407 41.5028 400.229 41.7284 400.229 42.3085C400.229 42.8966 400.425 43.1384 401.695 44.1536C404.299 46.2162 407.107 47.5939 409.826 48.1498C410.839 48.3594 413.221 48.3997 414.225 48.2385C415.238 48.0693 416.446 47.755 417.228 47.4489L417.833 47.2152L418.073 47.4811C418.935 48.4319 420.099 49.3503 421.494 50.1883C422.365 50.72 422.391 50.7281 422.978 50.7281C423.564 50.7281 423.591 50.72 424.462 50.1883C425.857 49.3503 427.021 48.4319 427.883 47.4811L428.123 47.2152L428.727 47.4489C429.509 47.755 430.718 48.0693 431.731 48.2385C432.735 48.3997 435.117 48.3594 436.13 48.1498C438.031 47.7631 440.333 46.8123 442.119 45.6843C443.372 44.8868 445.265 43.4042 445.54 43.0094C445.807 42.6065 445.798 41.962 445.513 41.5753C445.282 41.2691 443.754 40.0203 442.839 39.3999C441.906 38.7553 440.741 38.1187 439.497 37.5709L438.298 37.0391L438.715 36.3059C439.275 35.3391 439.702 34.2593 440.004 33.0831C440.235 32.1726 440.253 31.9873 440.288 29.7635C440.342 26.3715 440.555 26.5649 436.752 26.6213C434.512 26.6535 434.015 26.6857 433.304 26.8308C432.157 27.0644 430.771 27.4914 429.936 27.8701L429.234 28.1924L429.092 27.6848C428.416 25.3482 426.497 22.2463 424.444 20.1514C423.751 19.4424 423.564 19.3457 422.978 19.3457C422.658 19.3457 422.409 19.394 422.258 19.4907ZM423.493 23.1084C425.084 25.0663 426.372 27.6445 426.746 29.6507C426.923 30.6257 426.923 32.2371 426.746 33.2119C426.541 34.3239 425.999 35.758 425.297 37.031C424.719 38.0865 423.733 39.5368 423.209 40.0928L422.978 40.3345L422.747 40.0928C422.222 39.5368 421.236 38.0865 420.659 37.031C419.957 35.758 419.414 34.3239 419.21 33.2119C419.032 32.2371 419.032 30.6257 419.21 29.6507C419.583 27.6445 420.872 25.0663 422.462 23.1084C422.702 22.8103 422.942 22.5685 422.978 22.5685C423.013 22.5685 423.253 22.8103 423.493 23.1084ZM410.377 29.0948C412.439 29.2318 414.287 29.7635 415.931 30.6901L416.313 30.9076V31.7939C416.313 34.3158 417.495 37.5064 419.423 40.1975C419.717 40.6085 419.957 40.9629 419.957 40.9871C419.957 41.0596 419.068 41.0112 418.33 40.8904C413.976 40.2056 410.386 37.3936 408.982 33.5826C408.618 32.5835 408.431 31.5925 408.351 30.1181L408.289 29.0142H408.769C409.035 29.0142 409.755 29.0545 410.377 29.0948ZM437.605 30.1181C437.462 32.7044 436.894 34.3802 435.525 36.2656C434.903 37.1197 433.597 38.3524 432.673 38.9486C431.215 39.9075 429.358 40.6164 427.625 40.8904C426.888 41.0112 425.999 41.0596 425.999 40.9871C425.999 40.9629 426.239 40.6085 426.532 40.1975C428.461 37.5064 429.643 34.3158 429.643 31.7939V30.9076L430.025 30.6901C432.006 29.5702 434.059 29.0787 437.009 29.0223L437.667 29.0142L437.605 30.1181ZM410.27 39.9154C412.181 41.5834 414.571 42.7193 417.335 43.2753C417.779 43.364 418.295 43.4364 418.49 43.4445C418.686 43.4445 418.943 43.4767 419.059 43.5089C419.263 43.5573 419.21 43.5976 418.552 43.9843C415.282 45.8858 412.199 46.3371 409.133 45.3541C408.138 45.0398 406.796 44.4355 405.845 43.8716C405.09 43.4284 403.606 42.389 403.606 42.3085C403.615 42.236 404.974 41.2933 405.783 40.7937C406.832 40.1572 408.778 39.279 409.373 39.1742C409.391 39.1662 409.791 39.5046 410.27 39.9154ZM437.631 39.553C438.635 39.9316 439.657 40.4554 440.573 41.0434C441.506 41.6397 442.305 42.2279 442.305 42.3085C442.305 42.4212 441.088 43.2915 440.128 43.8554C438.564 44.79 436.805 45.4749 435.33 45.7246C434.415 45.8858 432.886 45.8858 432.015 45.7408C430.576 45.491 428.878 44.8384 427.385 43.9763C426.737 43.5976 426.692 43.5573 426.897 43.5089C427.012 43.4767 427.27 43.4445 427.465 43.4445C428.532 43.4123 430.78 42.7839 432.246 42.107C433.659 41.4544 434.637 40.834 435.676 39.9235C436.636 39.0776 436.485 39.1098 437.631 39.553ZM423.822 44.7256C424.284 45.0801 424.879 45.4991 425.155 45.6602L425.644 45.9583L425.368 46.2484C424.995 46.6351 424.035 47.3926 423.449 47.7631L422.978 48.0532L422.507 47.7631C421.92 47.3926 420.961 46.6351 420.596 46.2484L420.321 45.9583L420.916 45.5877C421.245 45.3782 421.831 44.9592 422.222 44.6531C422.613 44.3469 422.942 44.089 422.951 44.089C422.969 44.0811 423.36 44.3711 423.822 44.7256Z"/>
    </mask>
    <path d="M422.258 19.4907C421.672 19.8452 420.001 21.787 419.095 23.1567C418.064 24.7117 417.246 26.3876 416.864 27.6848L416.722 28.1924L416.02 27.8701C415.185 27.4914 413.798 27.0644 412.652 26.8308C411.941 26.6857 411.443 26.6535 409.204 26.6213C406.272 26.5729 406.192 26.589 405.818 27.1369C405.641 27.3947 405.632 27.4914 405.667 29.7635C405.703 31.9873 405.721 32.1726 405.952 33.0831C406.254 34.2593 406.68 35.3391 407.24 36.3059L407.658 37.0391L406.458 37.5709C404.539 38.4169 403.357 39.142 401.589 40.5601C400.407 41.5028 400.229 41.7284 400.229 42.3085C400.229 42.8966 400.425 43.1384 401.695 44.1536C404.299 46.2162 407.107 47.5939 409.826 48.1498C410.839 48.3594 413.221 48.3997 414.225 48.2385C415.238 48.0693 416.446 47.755 417.228 47.4489L417.833 47.2152L418.073 47.4811C418.935 48.4319 420.099 49.3503 421.494 50.1883C422.365 50.72 422.391 50.7281 422.978 50.7281C423.564 50.7281 423.591 50.72 424.462 50.1883C425.857 49.3503 427.021 48.4319 427.883 47.4811L428.123 47.2152L428.727 47.4489C429.509 47.755 430.718 48.0693 431.731 48.2385C432.735 48.3997 435.117 48.3594 436.13 48.1498C438.031 47.7631 440.333 46.8123 442.119 45.6843C443.372 44.8868 445.265 43.4042 445.54 43.0094C445.807 42.6065 445.798 41.962 445.513 41.5753C445.282 41.2691 443.754 40.0203 442.839 39.3999C441.906 38.7553 440.741 38.1187 439.497 37.5709L438.298 37.0391L438.715 36.3059C439.275 35.3391 439.702 34.2593 440.004 33.0831C440.235 32.1726 440.253 31.9873 440.288 29.7635C440.342 26.3715 440.555 26.5649 436.752 26.6213C434.512 26.6535 434.015 26.6857 433.304 26.8308C432.157 27.0644 430.771 27.4914 429.936 27.8701L429.234 28.1924L429.092 27.6848C428.416 25.3482 426.497 22.2463 424.444 20.1514C423.751 19.4424 423.564 19.3457 422.978 19.3457C422.658 19.3457 422.409 19.394 422.258 19.4907ZM423.493 23.1084C425.084 25.0663 426.372 27.6445 426.746 29.6507C426.923 30.6257 426.923 32.2371 426.746 33.2119C426.541 34.3239 425.999 35.758 425.297 37.031C424.719 38.0865 423.733 39.5368 423.209 40.0928L422.978 40.3345L422.747 40.0928C422.222 39.5368 421.236 38.0865 420.659 37.031C419.957 35.758 419.414 34.3239 419.21 33.2119C419.032 32.2371 419.032 30.6257 419.21 29.6507C419.583 27.6445 420.872 25.0663 422.462 23.1084C422.702 22.8103 422.942 22.5685 422.978 22.5685C423.013 22.5685 423.253 22.8103 423.493 23.1084ZM410.377 29.0948C412.439 29.2318 414.287 29.7635 415.931 30.6901L416.313 30.9076V31.7939C416.313 34.3158 417.495 37.5064 419.423 40.1975C419.717 40.6085 419.957 40.9629 419.957 40.9871C419.957 41.0596 419.068 41.0112 418.33 40.8904C413.976 40.2056 410.386 37.3936 408.982 33.5826C408.618 32.5835 408.431 31.5925 408.351 30.1181L408.289 29.0142H408.769C409.035 29.0142 409.755 29.0545 410.377 29.0948ZM437.605 30.1181C437.462 32.7044 436.894 34.3802 435.525 36.2656C434.903 37.1197 433.597 38.3524 432.673 38.9486C431.215 39.9075 429.358 40.6164 427.625 40.8904C426.888 41.0112 425.999 41.0596 425.999 40.9871C425.999 40.9629 426.239 40.6085 426.532 40.1975C428.461 37.5064 429.643 34.3158 429.643 31.7939V30.9076L430.025 30.6901C432.006 29.5702 434.059 29.0787 437.009 29.0223L437.667 29.0142L437.605 30.1181ZM410.27 39.9154C412.181 41.5834 414.571 42.7193 417.335 43.2753C417.779 43.364 418.295 43.4364 418.49 43.4445C418.686 43.4445 418.943 43.4767 419.059 43.5089C419.263 43.5573 419.21 43.5976 418.552 43.9843C415.282 45.8858 412.199 46.3371 409.133 45.3541C408.138 45.0398 406.796 44.4355 405.845 43.8716C405.09 43.4284 403.606 42.389 403.606 42.3085C403.615 42.236 404.974 41.2933 405.783 40.7937C406.832 40.1572 408.778 39.279 409.373 39.1742C409.391 39.1662 409.791 39.5046 410.27 39.9154ZM437.631 39.553C438.635 39.9316 439.657 40.4554 440.573 41.0434C441.506 41.6397 442.305 42.2279 442.305 42.3085C442.305 42.4212 441.088 43.2915 440.128 43.8554C438.564 44.79 436.805 45.4749 435.33 45.7246C434.415 45.8858 432.886 45.8858 432.015 45.7408C430.576 45.491 428.878 44.8384 427.385 43.9763C426.737 43.5976 426.692 43.5573 426.897 43.5089C427.012 43.4767 427.27 43.4445 427.465 43.4445C428.532 43.4123 430.78 42.7839 432.246 42.107C433.659 41.4544 434.637 40.834 435.676 39.9235C436.636 39.0776 436.485 39.1098 437.631 39.553ZM423.822 44.7256C424.284 45.0801 424.879 45.4991 425.155 45.6602L425.644 45.9583L425.368 46.2484C424.995 46.6351 424.035 47.3926 423.449 47.7631L422.978 48.0532L422.507 47.7631C421.92 47.3926 420.961 46.6351 420.596 46.2484L420.321 45.9583L420.916 45.5877C421.245 45.3782 421.831 44.9592 422.222 44.6531C422.613 44.3469 422.942 44.089 422.951 44.089C422.969 44.0811 423.36 44.3711 423.822 44.7256Z"
          fill="#FF6160" stroke="#FF6160" stroke-width="0.679379" mask="url(#path-8-inside-1_84_2445)"/>
    <path d="M398.942 68.573C398.892 68.1216 398.682 67.772 398.313 67.5241C397.944 67.273 397.48 67.1474 396.921 67.1474C396.52 67.1474 396.174 67.211 395.881 67.3381C395.589 67.4621 395.362 67.6337 395.2 67.8531C395.041 68.0692 394.961 68.3155 394.961 68.5921C394.961 68.8241 395.015 69.0244 395.123 69.1928C395.235 69.3613 395.379 69.5027 395.557 69.6172C395.738 69.7284 395.932 69.8222 396.139 69.8985C396.345 69.9716 396.544 70.032 396.735 70.0796L397.688 70.3276C398 70.4039 398.319 70.5072 398.647 70.6375C398.974 70.7678 399.278 70.9394 399.557 71.1524C399.837 71.3654 400.063 71.6292 400.234 71.9439C400.409 72.2586 400.497 72.6352 400.497 73.0739C400.497 73.6269 400.354 74.118 400.068 74.5471C399.785 74.9762 399.373 75.3147 398.833 75.5627C398.296 75.8106 397.646 75.9346 396.883 75.9346C396.152 75.9346 395.519 75.8186 394.985 75.5865C394.451 75.3545 394.033 75.0255 393.731 74.5996C393.429 74.1705 393.262 73.6619 393.23 73.0739H394.709C394.737 73.4267 394.852 73.7207 395.052 73.9559C395.255 74.1879 395.514 74.3612 395.829 74.4756C396.147 74.5869 396.495 74.6425 396.873 74.6425C397.29 74.6425 397.66 74.5773 397.984 74.447C398.311 74.3135 398.569 74.1291 398.756 73.8939C398.944 73.6555 399.038 73.3774 399.038 73.0596C399.038 72.7703 398.955 72.5335 398.79 72.3491C398.628 72.1648 398.407 72.0122 398.127 71.8914C397.851 71.7706 397.537 71.6642 397.188 71.572L396.034 71.2573C395.252 71.0443 394.632 70.7312 394.175 70.318C393.72 69.9048 393.493 69.3581 393.493 68.6779C393.493 68.1153 393.645 67.6242 393.95 67.2046C394.256 66.7851 394.669 66.4593 395.19 66.2272C395.711 65.992 396.299 65.8744 396.954 65.8744C397.615 65.8744 398.199 65.9904 398.704 66.2224C399.213 66.4545 399.613 66.7739 399.905 67.1808C400.198 67.5845 400.35 68.0485 400.363 68.573H398.942ZM405.568 75.9203C404.846 75.9203 404.225 75.7661 403.703 75.4578C403.185 75.1463 402.785 74.7092 402.502 74.1466C402.222 73.5808 402.082 72.9181 402.082 72.1584C402.082 71.4083 402.222 70.7471 402.502 70.175C402.785 69.6029 403.179 69.1563 403.684 68.8352C404.193 68.5142 404.787 68.3537 405.468 68.3537C405.881 68.3537 406.281 68.422 406.669 68.5587C407.057 68.6954 407.405 68.9099 407.713 69.2024C408.021 69.4948 408.265 69.8746 408.443 70.3419C408.621 70.8059 408.71 71.3701 408.71 72.0345V72.5399H402.888V71.4719H407.313C407.313 71.0968 407.236 70.7646 407.084 70.4754C406.931 70.1829 406.717 69.9525 406.44 69.784C406.167 69.6156 405.846 69.5313 405.477 69.5313C405.077 69.5313 404.727 69.6299 404.428 69.8269C404.133 70.0208 403.904 70.2751 403.742 70.5898C403.583 70.9013 403.503 71.2398 403.503 71.6054V72.4397C403.503 72.9292 403.589 73.3456 403.761 73.6889C403.935 74.0322 404.179 74.2944 404.49 74.4756C404.802 74.6536 405.166 74.7426 405.582 74.7426C405.852 74.7426 406.098 74.7045 406.321 74.6282C406.543 74.5487 406.736 74.4311 406.898 74.2754C407.06 74.1196 407.184 73.9273 407.27 73.6984L408.619 73.9416C408.511 74.3389 408.317 74.687 408.037 74.9858C407.761 75.2814 407.413 75.5118 406.993 75.6771C406.577 75.8392 406.102 75.9203 405.568 75.9203ZM411.986 66.0079V75.7725H410.56V66.0079H411.986ZM417.657 68.449V69.5933H413.519V68.449H417.657ZM414.653 75.7725V67.6004C414.653 67.1426 414.754 66.7628 414.954 66.4608C415.154 66.1557 415.419 65.9284 415.75 65.779C416.081 65.6265 416.44 65.5502 416.828 65.5502C417.114 65.5502 417.358 65.574 417.562 65.6217C417.765 65.6662 417.916 65.7075 418.015 65.7457L417.681 66.8995C417.614 66.8804 417.528 66.8582 417.424 66.8327C417.319 66.8041 417.192 66.7898 417.042 66.7898C416.696 66.7898 416.448 66.8756 416.298 67.0473C416.152 67.2189 416.079 67.4669 416.079 67.7911V75.7725H414.653ZM423.371 71.0284V72.2633H419.041V71.0284H423.371ZM428.624 75.9203C427.915 75.9203 427.305 75.7597 426.793 75.4387C426.285 75.1145 425.894 74.6679 425.62 74.0989C425.347 73.53 425.21 72.8784 425.21 72.1441C425.21 71.4003 425.35 70.744 425.63 70.175C425.909 69.6029 426.304 69.1563 426.812 68.8352C427.321 68.5142 427.92 68.3537 428.61 68.3537C429.166 68.3537 429.662 68.457 430.097 68.6636C430.533 68.867 430.884 69.1531 431.151 69.5218C431.421 69.8905 431.582 70.3212 431.632 70.8139H430.245C430.169 70.4706 429.994 70.175 429.721 69.9271C429.45 69.6791 429.088 69.5552 428.633 69.5552C428.236 69.5552 427.888 69.6601 427.589 69.8699C427.294 70.0765 427.063 70.3721 426.898 70.7567C426.733 71.1381 426.65 71.5895 426.65 72.1107C426.65 72.6447 426.731 73.1056 426.893 73.4934C427.055 73.8812 427.284 74.1816 427.58 74.3946C427.879 74.6075 428.23 74.714 428.633 74.714C428.904 74.714 429.148 74.6647 429.368 74.5662C429.59 74.4645 429.776 74.3199 429.926 74.1323C430.078 73.9448 430.185 73.7191 430.245 73.4553H431.632C431.582 73.9289 431.427 74.3516 431.17 74.7235C430.913 75.0954 430.568 75.3879 430.135 75.6008C429.706 75.8138 429.202 75.9203 428.624 75.9203ZM435.557 75.9346C435.093 75.9346 434.673 75.8487 434.298 75.6771C433.923 75.5023 433.626 75.2496 433.406 74.919C433.19 74.5884 433.082 74.1832 433.082 73.7032C433.082 73.29 433.162 72.9499 433.321 72.6829C433.48 72.4159 433.694 72.2045 433.964 72.0488C434.234 71.893 434.536 71.7754 434.87 71.6959C435.204 71.6165 435.544 71.5561 435.89 71.5148C436.329 71.4639 436.685 71.4226 436.958 71.3908C437.232 71.3558 437.431 71.3002 437.554 71.2239C437.678 71.1476 437.74 71.0237 437.74 70.852V70.8187C437.74 70.4023 437.623 70.0796 437.388 69.8508C437.156 69.6219 436.809 69.5075 436.348 69.5075C435.868 69.5075 435.49 69.614 435.213 69.8269C434.94 70.0367 434.751 70.2704 434.646 70.5278L433.306 70.2227C433.465 69.7777 433.697 69.4185 434.002 69.1451C434.311 68.8686 434.665 68.6684 435.066 68.5444C435.466 68.4173 435.887 68.3537 436.329 68.3537C436.622 68.3537 436.931 68.3886 437.259 68.4586C437.589 68.5253 437.898 68.6493 438.184 68.8305C438.473 69.0116 438.71 69.2707 438.894 69.6076C439.079 69.9414 439.171 70.3752 439.171 70.9092V75.7725H437.779V74.7712H437.721C437.629 74.9556 437.491 75.1367 437.307 75.3147C437.122 75.4927 436.885 75.6406 436.596 75.7582C436.307 75.8758 435.96 75.9346 435.557 75.9346ZM435.867 74.7903C436.261 74.7903 436.598 74.7124 436.877 74.5567C437.16 74.4009 437.375 74.1975 437.521 73.9464C437.67 73.6921 437.745 73.4203 437.745 73.1311V72.187C437.694 72.2379 437.596 72.2856 437.45 72.3301C437.307 72.3714 437.143 72.4079 436.958 72.4397C436.774 72.4683 436.595 72.4954 436.42 72.5208C436.245 72.543 436.099 72.5621 435.981 72.578C435.705 72.613 435.452 72.6718 435.223 72.7544C434.997 72.8371 434.816 72.9562 434.679 73.112C434.546 73.2646 434.479 73.468 434.479 73.7223C434.479 74.0751 434.61 74.3421 434.87 74.5233C435.131 74.7013 435.463 74.7903 435.867 74.7903ZM441.338 75.7725V68.449H442.716V69.6124H442.792C442.926 69.2182 443.161 68.9083 443.498 68.6827C443.838 68.4538 444.223 68.3394 444.652 68.3394C444.741 68.3394 444.846 68.3426 444.966 68.3489C445.09 68.3553 445.187 68.3632 445.257 68.3728V69.7364C445.2 69.7205 445.098 69.703 444.952 69.6839C444.806 69.6617 444.66 69.6505 444.513 69.6505C444.177 69.6505 443.876 69.7221 443.612 69.8651C443.352 70.0049 443.145 70.2004 442.993 70.4515C442.84 70.6995 442.764 70.9824 442.764 71.3002V75.7725H441.338ZM449.654 75.9203C448.932 75.9203 448.311 75.7661 447.789 75.4578C447.271 75.1463 446.871 74.7092 446.588 74.1466C446.308 73.5808 446.168 72.9181 446.168 72.1584C446.168 71.4083 446.308 70.7471 446.588 70.175C446.871 69.6029 447.265 69.1563 447.77 68.8352C448.279 68.5142 448.873 68.3537 449.553 68.3537C449.967 68.3537 450.367 68.422 450.755 68.5587C451.143 68.6954 451.491 68.9099 451.799 69.2024C452.107 69.4948 452.351 69.8746 452.529 70.3419C452.707 70.8059 452.796 71.3701 452.796 72.0345V72.5399H446.974V71.4719H451.399C451.399 71.0968 451.322 70.7646 451.17 70.4754C451.017 70.1829 450.803 69.9525 450.526 69.784C450.253 69.6156 449.932 69.5313 449.563 69.5313C449.162 69.5313 448.813 69.6299 448.514 69.8269C448.218 70.0208 447.99 70.2751 447.827 70.5898C447.669 70.9013 447.589 71.2398 447.589 71.6054V72.4397C447.589 72.9292 447.675 73.3456 447.847 73.6889C448.021 74.0322 448.265 74.2944 448.576 74.4756C448.888 74.6536 449.251 74.7426 449.668 74.7426C449.938 74.7426 450.184 74.7045 450.407 74.6282C450.629 74.5487 450.822 74.4311 450.984 74.2754C451.146 74.1196 451.27 73.9273 451.356 73.6984L452.705 73.9416C452.597 74.3389 452.403 74.687 452.123 74.9858C451.847 75.2814 451.499 75.5118 451.079 75.6771C450.663 75.8392 450.188 75.9203 449.654 75.9203Z"
          fill="#212121"/>
    <rect x="0.680176" y="127.347" width="144.53" height="96.3537" rx="18.0663" fill="white"/>
    <path d="M93.6443 159.607C93.504 160.418 93.4354 161.247 93.2088 162.036C91.6387 167.532 87.8851 170.945 82.0087 172.272C81.616 172.36 81.1587 172.226 80.7369 172.161C80.381 172.106 80.0345 172 79.6616 171.912C79.6 172.028 79.5383 172.138 79.4832 172.251C78.6377 173.981 77.4354 175.457 75.9655 176.764C75.1438 177.496 74.2015 177.877 73.1048 178.041C66.4785 179.032 60.3689 176.08 57.4008 170.429C55.6782 167.144 53.959 163.857 52.2429 160.569C52.2319 160.548 52.2049 160.535 52.1859 160.518L52.1733 159.909C52.4799 159.496 52.7427 159.047 53.1021 158.68C53.7319 158.037 54.3714 157.391 55.0891 156.841C59.1431 153.735 63.7297 151.616 68.7908 150.389C69.0552 150.325 69.1341 150.226 69.1225 149.978C69.0932 149.344 69.0962 148.709 69.0773 148.075C69.0609 147.851 69.1139 147.628 69.23 147.433C69.3461 147.237 69.5201 147.078 69.7309 146.974C69.964 146.847 70.1987 146.721 70.4419 146.612C72.4484 145.71 74.5867 145.26 76.7723 144.984C80.0926 144.556 83.4588 144.545 86.7821 144.953C88.6599 145.186 90.4948 145.579 92.2301 146.322C92.7205 146.531 93.148 146.791 93.3839 147.266L93.6443 159.607ZM78.366 166.752C78.3446 164.746 77.9392 163.096 77.1308 161.54C75.5621 158.522 73.9726 155.515 72.4016 152.5C72.2868 152.279 72.1523 152.2 71.9044 152.239C71.0533 152.371 70.1888 152.444 69.3526 152.63C66.0569 153.363 63.019 154.687 60.1184 156.304C58.3125 157.31 56.6281 158.466 55.1838 159.915C54.91 160.19 54.8536 160.399 55.0475 160.763C56.5714 163.616 58.0673 166.483 59.5672 169.349C61.979 173.954 66.6925 176.39 72.1268 175.848C73.126 175.749 73.9587 175.433 74.6895 174.734C77.1353 172.398 78.3509 169.612 78.366 166.752ZM80.4202 169.705C81.0305 169.837 81.5745 170.049 82.2142 169.881C87.5851 168.473 91.2238 163.974 91.1742 158.702C91.1416 155.34 91.0385 151.977 90.9799 148.613C90.9747 148.362 90.8759 148.246 90.6397 148.184C89.7062 147.94 88.7875 147.623 87.8395 147.458C83.6799 146.732 79.5132 146.793 75.3657 147.547C74.1697 147.765 73.0168 148.191 71.8502 148.539C71.727 148.575 71.5632 148.721 71.554 148.826C71.5243 149.188 71.5554 149.553 71.5637 149.955C72.018 149.947 72.4325 149.935 72.848 149.932C73.4734 149.929 73.9233 150.177 74.1956 150.728C74.5482 151.439 74.9297 152.139 75.3007 152.84C75.5065 153.232 75.7099 153.585 76.148 153.849C76.9421 154.326 77.3956 154.359 78.1412 153.787C78.6642 153.383 79.3736 153.41 79.8259 153.852C80.2906 154.306 80.2871 154.993 79.8059 155.463C79.3604 155.909 78.7906 156.23 78.1612 156.387C77.8775 156.457 77.5876 156.503 77.2826 156.563C77.3193 156.653 77.3427 156.725 77.3773 156.79C78.052 158.073 78.7267 159.355 79.3871 160.648C79.5129 160.896 79.6554 160.852 79.8691 160.805C82.3164 160.259 84.4859 160.764 86.3728 162.336C86.7446 162.646 86.9163 163.032 86.802 163.495C86.5821 164.376 85.5078 164.684 84.7635 164.066C84.1864 163.586 83.5526 163.219 82.8059 163.035C81.9868 162.837 81.1697 162.813 80.3427 163.09C80.9468 165.3 80.9558 167.486 80.4202 169.705Z"
          fill="#FF6160"/>
    <path d="M68.0257 171.299C67.2874 171.168 66.5394 171.074 65.8147 170.897C65.09 170.719 64.7358 170.084 64.9292 169.453C65.1227 168.823 65.7848 168.52 66.5136 168.701C69.0836 169.343 71.1946 168.365 72.2104 166.06C72.5014 165.403 73.1626 165.101 73.8074 165.329C74.4521 165.558 74.7519 166.226 74.4882 166.905C73.4844 169.475 70.9595 171.16 68.0257 171.299Z"
          fill="#FF6160"/>
    <path d="M72.6112 160.928C72.4983 160.919 72.386 160.905 72.2749 160.884C71.4368 160.709 70.9522 160.936 70.5901 161.677C70.347 162.177 69.931 162.432 69.3903 162.413C69.1458 162.411 68.9088 162.334 68.7141 162.195C68.5195 162.056 68.3774 161.862 68.3089 161.641C68.2371 161.4 68.2357 161.144 68.3049 160.902C68.8977 159.097 71.1298 158.058 73.0159 158.689C73.6008 158.885 73.958 159.427 73.8566 159.969C73.7531 160.522 73.2727 160.913 72.6112 160.928Z"
          fill="#FF6160"/>
    <path d="M63.7742 162.181C64.1678 162.254 64.5706 162.3 64.9551 162.405C65.6281 162.59 65.9857 163.193 65.8151 163.79C65.6398 164.403 65.0249 164.749 64.3459 164.625C63.3368 164.444 62.9958 164.602 62.5486 165.461C62.2456 166.044 61.5646 166.294 60.9527 166.046C60.362 165.807 60.0793 165.183 60.2913 164.588C60.7798 163.221 62.2096 162.248 63.7742 162.181Z"
          fill="#FF6160"/>
    <path d="M86.1541 156.369C85.1576 156.368 84.2774 156.074 83.5424 155.437C83.0062 154.974 82.9515 154.294 83.3959 153.807C83.8402 153.319 84.5635 153.273 85.1344 153.693C85.8238 154.2 86.3842 154.188 87.0495 153.654C87.5794 153.227 88.3055 153.24 88.7627 153.685C88.9885 153.907 89.1114 154.205 89.1044 154.512C89.0974 154.82 88.9612 155.112 88.7255 155.325C88.0168 155.995 87.1496 156.325 86.1541 156.369Z"
          fill="#FF6160"/>
    <path d="M58.2486 197.019H56.761C56.7038 196.702 56.5973 196.422 56.4416 196.18C56.2858 195.939 56.0951 195.734 55.8694 195.565C55.6438 195.397 55.3911 195.27 55.1114 195.184C54.8348 195.098 54.5408 195.055 54.2293 195.055C53.6667 195.055 53.1629 195.197 52.7179 195.479C52.2761 195.762 51.9264 196.177 51.669 196.724C51.4147 197.271 51.2875 197.938 51.2875 198.726C51.2875 199.521 51.4147 200.192 51.669 200.738C51.9264 201.285 52.2777 201.698 52.7227 201.978C53.1677 202.258 53.6683 202.398 54.2245 202.398C54.5329 202.398 54.8253 202.356 55.1018 202.274C55.3815 202.188 55.6342 202.062 55.8599 201.897C56.0856 201.732 56.2763 201.53 56.4321 201.291C56.591 201.05 56.7006 200.773 56.761 200.462L58.2486 200.467C58.1691 200.947 58.015 201.388 57.7861 201.792C57.5604 202.193 57.2696 202.539 56.9136 202.831C56.5608 203.121 56.1571 203.345 55.7026 203.504C55.248 203.663 54.7522 203.742 54.215 203.742C53.3695 203.742 52.6162 203.542 51.955 203.141C51.2939 202.738 50.7726 202.161 50.3912 201.411C50.0129 200.661 49.8238 199.766 49.8238 198.726C49.8238 197.684 50.0145 196.789 50.3959 196.042C50.7774 195.292 51.2987 194.717 51.9598 194.316C52.6209 193.912 53.3727 193.711 54.215 193.711C54.7331 193.711 55.2162 193.785 55.6644 193.935C56.1158 194.081 56.5211 194.297 56.8802 194.583C57.2394 194.866 57.5366 195.212 57.7718 195.622C58.007 196.029 58.166 196.495 58.2486 197.019ZM64.6705 200.572V196.285H66.1008V203.609H64.6991V202.34H64.6228C64.4543 202.731 64.1842 203.057 63.8123 203.318C63.4435 203.575 62.9842 203.704 62.4344 203.704C61.9639 203.704 61.5475 203.601 61.1852 203.394C60.826 203.184 60.5431 202.874 60.3365 202.464C60.1331 202.054 60.0314 201.547 60.0314 200.943V196.285H61.4569V200.772C61.4569 201.271 61.5952 201.668 61.8717 201.964C62.1483 202.259 62.5075 202.407 62.9493 202.407C63.2163 202.407 63.4817 202.34 63.7455 202.207C64.0125 202.073 64.2334 201.872 64.4082 201.601C64.5862 201.331 64.6737 200.988 64.6705 200.572ZM69.5762 193.844V203.609H68.1506V193.844H69.5762ZM75.0469 196.285V197.43H71.0466V196.285H75.0469ZM72.1194 194.531H73.545V201.458C73.545 201.735 73.5863 201.943 73.6689 202.083C73.7516 202.22 73.8581 202.313 73.9884 202.364C74.1219 202.412 74.2665 202.436 74.4223 202.436C74.5367 202.436 74.6368 202.428 74.7226 202.412C74.8085 202.396 74.8752 202.383 74.9229 202.374L75.1804 203.551C75.0977 203.583 74.9801 203.615 74.8275 203.647C74.675 203.682 74.4842 203.701 74.2554 203.704C73.8803 203.71 73.5307 203.644 73.2065 203.504C72.8822 203.364 72.62 203.148 72.4198 202.855C72.2195 202.563 72.1194 202.196 72.1194 201.754V194.531ZM81.3972 200.572V196.285H82.8276V203.609H81.4258V202.34H81.3495C81.1811 202.731 80.9109 203.057 80.539 203.318C80.1703 203.575 79.711 203.704 79.1611 203.704C78.6907 203.704 78.2743 203.601 77.9119 203.394C77.5527 203.184 77.2698 202.874 77.0632 202.464C76.8598 202.054 76.7581 201.547 76.7581 200.943V196.285H78.1837V200.772C78.1837 201.271 78.3219 201.668 78.5985 201.964C78.875 202.259 79.2342 202.407 79.676 202.407C79.943 202.407 80.2084 202.34 80.4722 202.207C80.7392 202.073 80.9602 201.872 81.135 201.601C81.313 201.331 81.4004 200.988 81.3972 200.572ZM84.8773 203.609V196.285H86.2552V197.449H86.3315C86.465 197.054 86.7002 196.745 87.0371 196.519C87.3773 196.29 87.7619 196.176 88.191 196.176C88.28 196.176 88.3849 196.179 88.5056 196.185C88.6296 196.191 88.7266 196.199 88.7965 196.209V197.573C88.7393 197.557 88.6376 197.539 88.4913 197.52C88.3451 197.498 88.1989 197.487 88.0527 197.487C87.7158 197.487 87.4154 197.558 87.1516 197.701C86.8909 197.841 86.6843 198.037 86.5318 198.288C86.3792 198.536 86.3029 198.819 86.3029 199.136V203.609H84.8773ZM93.0585 203.756C92.337 203.756 91.7156 203.602 91.1943 203.294C90.6762 202.982 90.2757 202.545 89.9928 201.983C89.7131 201.417 89.5732 200.754 89.5732 199.995C89.5732 199.244 89.7131 198.583 89.9928 198.011C90.2757 197.439 90.6698 196.992 91.1752 196.671C91.6838 196.35 92.2782 196.19 92.9584 196.19C93.3716 196.19 93.7721 196.258 94.1599 196.395C94.5477 196.532 94.8957 196.746 95.2041 197.039C95.5124 197.331 95.7555 197.711 95.9335 198.178C96.1115 198.642 96.2005 199.206 96.2005 199.871V200.376H90.379V199.308H94.8036C94.8036 198.933 94.7273 198.601 94.5747 198.312C94.4221 198.019 94.2076 197.789 93.931 197.62C93.6577 197.452 93.3366 197.368 92.9679 197.368C92.5674 197.368 92.2178 197.466 91.919 197.663C91.6234 197.857 91.3945 198.111 91.2324 198.426C91.0735 198.737 90.994 199.076 90.994 199.442V200.276C90.994 200.765 91.0799 201.182 91.2515 201.525C91.4263 201.868 91.6695 202.131 91.981 202.312C92.2925 202.49 92.6564 202.579 93.0728 202.579C93.343 202.579 93.5893 202.541 93.8118 202.464C94.0343 202.385 94.2266 202.267 94.3888 202.112C94.5509 201.956 94.6748 201.763 94.7606 201.535L96.1099 201.778C96.0019 202.175 95.808 202.523 95.5283 202.822C95.2517 203.118 94.9037 203.348 94.4841 203.513C94.0677 203.675 93.5925 203.756 93.0585 203.756Z"
          fill="#212121"/>
    <rect x="155.179" y="113.725" width="187.326" height="123.596" rx="23.1743" fill="#FF6160"/>
    <path fill-rule="evenodd" clip-rule="evenodd"
          d="M232.386 137.166C231.062 137.166 229.989 138.067 229.989 139.179C229.989 143.403 231.906 147.462 235.336 150.533C235.383 150.58 235.432 150.625 235.484 150.669L235.744 150.887L235.775 150.913L246.766 160.146V173.405H239.576C238.252 173.405 237.179 174.306 237.179 175.418C237.179 176.53 238.252 177.432 239.576 177.432H258.75C260.074 177.432 261.147 176.53 261.147 175.418C261.147 174.306 260.074 173.405 258.75 173.405H251.56V160.146L262.842 150.669C262.894 150.625 262.944 150.579 262.991 150.532C266.42 147.461 268.337 143.403 268.337 139.179C268.337 138.067 267.264 137.166 265.94 137.166H232.386ZM238.257 147.232H260.069C261.791 145.499 262.922 143.411 263.351 141.192H234.975C235.404 143.411 236.535 145.499 238.257 147.232Z"
          fill="#1E1E1E"/>
    <path d="M231.822 209.881L231.822 197.356H236.409C237.298 197.356 238.034 197.503 238.617 197.796C239.2 198.086 239.637 198.479 239.926 198.976C240.215 199.47 240.36 200.026 240.36 200.646C240.36 201.168 240.264 201.608 240.073 201.967C239.881 202.322 239.624 202.607 239.302 202.823C238.984 203.035 238.634 203.19 238.25 203.288V203.41C238.666 203.431 239.072 203.565 239.467 203.814C239.867 204.059 240.197 204.407 240.458 204.86C240.719 205.313 240.85 205.863 240.85 206.511C240.85 207.151 240.699 207.726 240.397 208.236C240.099 208.742 239.639 209.143 239.015 209.441C238.391 209.734 237.594 209.881 236.623 209.881H231.822ZM233.712 208.26H236.44C237.345 208.26 237.993 208.085 238.385 207.734C238.776 207.384 238.972 206.945 238.972 206.42C238.972 206.024 238.872 205.661 238.672 205.331C238.472 205.001 238.187 204.738 237.816 204.542C237.449 204.346 237.013 204.248 236.507 204.248H233.712V208.26ZM233.712 202.774H236.244C236.668 202.774 237.049 202.693 237.388 202.53C237.73 202.367 238.002 202.138 238.201 201.845C238.405 201.547 238.507 201.197 238.507 200.793C238.507 200.275 238.326 199.841 237.963 199.49C237.6 199.14 237.043 198.964 236.293 198.964H233.712V202.774ZM245.85 210.089C245.255 210.089 244.717 209.979 244.236 209.759C243.755 209.535 243.373 209.21 243.092 208.786C242.815 208.362 242.676 207.842 242.676 207.227C242.676 206.697 242.778 206.26 242.982 205.918C243.186 205.576 243.461 205.304 243.808 205.105C244.154 204.905 244.541 204.754 244.97 204.652C245.398 204.55 245.834 204.473 246.278 204.42C246.841 204.354 247.298 204.301 247.648 204.261C247.999 204.216 248.254 204.144 248.413 204.047C248.572 203.949 248.651 203.79 248.651 203.569V203.527C248.651 202.993 248.5 202.579 248.199 202.285C247.901 201.992 247.457 201.845 246.865 201.845C246.25 201.845 245.765 201.981 245.41 202.255C245.059 202.524 244.817 202.823 244.682 203.154L242.964 202.762C243.167 202.191 243.465 201.731 243.856 201.38C244.252 201.025 244.707 200.768 245.22 200.609C245.734 200.446 246.274 200.365 246.841 200.365C247.216 200.365 247.614 200.41 248.034 200.499C248.458 200.585 248.853 200.744 249.22 200.976C249.591 201.209 249.895 201.541 250.131 201.973C250.368 202.401 250.486 202.958 250.486 203.643V209.881H248.7V208.597H248.627C248.509 208.833 248.331 209.066 248.095 209.294C247.858 209.522 247.555 209.712 247.183 209.863C246.812 210.014 246.368 210.089 245.85 210.089ZM246.248 208.621C246.753 208.621 247.186 208.521 247.544 208.322C247.907 208.122 248.182 207.861 248.37 207.539C248.562 207.213 248.657 206.864 248.657 206.493V205.282C248.592 205.347 248.466 205.408 248.278 205.465C248.095 205.518 247.885 205.565 247.648 205.606C247.412 205.643 247.181 205.677 246.957 205.71C246.733 205.739 246.545 205.763 246.395 205.783C246.04 205.828 245.716 205.904 245.422 206.01C245.133 206.116 244.9 206.269 244.725 206.468C244.554 206.664 244.468 206.925 244.468 207.251C244.468 207.704 244.635 208.046 244.97 208.279C245.304 208.507 245.73 208.621 246.248 208.621ZM253.094 209.881V200.487H254.861V201.979H254.959C255.131 201.474 255.432 201.076 255.864 200.787C256.301 200.493 256.794 200.346 257.345 200.346C257.459 200.346 257.593 200.35 257.748 200.359C257.907 200.367 258.032 200.377 258.121 200.389V202.138C258.048 202.118 257.917 202.096 257.73 202.071C257.542 202.043 257.355 202.028 257.167 202.028C256.735 202.028 256.35 202.12 256.011 202.304C255.677 202.483 255.412 202.734 255.216 203.056C255.02 203.374 254.923 203.737 254.923 204.144V209.881H253.094ZM266.915 202.781L265.258 203.074C265.189 202.862 265.079 202.66 264.928 202.469C264.781 202.277 264.581 202.12 264.328 201.998C264.076 201.875 263.76 201.814 263.38 201.814C262.863 201.814 262.43 201.93 262.084 202.163C261.737 202.391 261.564 202.687 261.564 203.05C261.564 203.364 261.68 203.616 261.913 203.808C262.145 204 262.52 204.157 263.038 204.279L264.53 204.621C265.395 204.821 266.039 205.129 266.463 205.545C266.887 205.961 267.099 206.501 267.099 207.166C267.099 207.728 266.936 208.23 266.61 208.67C266.287 209.106 265.837 209.449 265.258 209.698C264.683 209.946 264.016 210.071 263.258 210.071C262.206 210.071 261.348 209.846 260.683 209.398C260.019 208.945 259.611 208.303 259.46 207.471L261.228 207.202C261.338 207.663 261.564 208.012 261.906 208.248C262.249 208.481 262.695 208.597 263.246 208.597C263.845 208.597 264.324 208.472 264.683 208.224C265.042 207.971 265.221 207.663 265.221 207.3C265.221 207.007 265.111 206.76 264.891 206.56C264.675 206.36 264.343 206.21 263.894 206.108L262.304 205.759C261.427 205.559 260.779 205.241 260.359 204.805C259.943 204.369 259.735 203.816 259.735 203.147C259.735 202.593 259.89 202.108 260.2 201.692C260.51 201.276 260.938 200.952 261.484 200.719C262.031 200.483 262.657 200.365 263.362 200.365C264.377 200.365 265.176 200.585 265.759 201.025C266.342 201.462 266.728 202.047 266.915 202.781Z"
          fill="#212121"/>
    <rect x="350.966" y="127.347" width="145.032" height="96.3537" rx="18.0663" fill="white"/>
    <path d="M408.148 147.314C408.738 147.081 409.418 147.209 409.87 147.64L420.76 158.011C420.686 158.06 420.616 158.116 420.55 158.179L418.507 160.124L418.237 159.867L416.194 161.813C415.576 162.401 414.575 162.401 413.958 161.813L412.106 160.049C408.947 157.041 407.172 152.96 407.172 148.705C407.172 148.096 407.557 147.547 408.148 147.314Z"
          fill="#FF6160"/>
    <path d="M422.786 160.308C422.851 160.245 422.91 160.178 422.962 160.108L422.98 160.125L424.894 158.302C423.96 156.075 425.023 152.781 427.703 150.229C430.944 147.142 435.323 146.308 437.484 148.366C439.645 150.423 438.769 154.594 435.528 157.681C432.891 160.192 429.501 161.212 427.165 160.397L425.215 162.254L438.325 174.739C438.942 175.327 438.942 176.281 438.325 176.869C437.708 177.456 436.707 177.456 436.089 176.869L422.98 164.383L409.87 176.869C409.253 177.456 408.252 177.456 407.635 176.869C407.018 176.281 407.018 175.327 407.635 174.739L420.744 162.254L420.743 162.253L422.786 160.308Z"
          fill="#FF6160"/>
    <path d="M408.148 147.314C408.738 147.081 409.418 147.209 409.87 147.64L420.76 158.011C420.686 158.06 420.616 158.116 420.55 158.179L418.507 160.124L418.237 159.867L416.194 161.813C415.576 162.401 414.575 162.401 413.958 161.813L412.106 160.049C408.947 157.041 407.172 152.96 407.172 148.705C407.172 148.096 407.557 147.547 408.148 147.314Z"
          stroke="#FF6160"/>
    <path d="M422.786 160.308C422.851 160.245 422.91 160.178 422.962 160.108L422.98 160.125L424.894 158.302C423.96 156.075 425.023 152.781 427.703 150.229C430.944 147.142 435.323 146.308 437.484 148.366C439.645 150.423 438.769 154.594 435.528 157.681C432.891 160.192 429.501 161.212 427.165 160.397L425.215 162.254L438.325 174.739C438.942 175.327 438.942 176.281 438.325 176.869C437.708 177.456 436.707 177.456 436.089 176.869L422.98 164.383L409.87 176.869C409.253 177.456 408.252 177.456 407.635 176.869C407.018 176.281 407.018 175.327 407.635 174.739L420.744 162.254L420.743 162.253L422.786 160.308Z"
          stroke="#FF6160"/>
    <path d="M408.446 202.354V192.589H414.501V193.857H409.919V196.832H414.067V198.096H409.919V202.354H408.446ZM419.014 202.501C418.328 202.501 417.728 202.344 417.217 202.029C416.705 201.715 416.308 201.274 416.025 200.709C415.742 200.143 415.6 199.482 415.6 198.725C415.6 197.965 415.742 197.301 416.025 196.732C416.308 196.163 416.705 195.721 417.217 195.407C417.728 195.092 418.328 194.935 419.014 194.935C419.701 194.935 420.3 195.092 420.812 195.407C421.323 195.721 421.721 196.163 422.004 196.732C422.286 197.301 422.428 197.965 422.428 198.725C422.428 199.482 422.286 200.143 422.004 200.709C421.721 201.274 421.323 201.715 420.812 202.029C420.3 202.344 419.701 202.501 419.014 202.501ZM419.019 201.305C419.464 201.305 419.833 201.187 420.125 200.952C420.417 200.717 420.634 200.403 420.773 200.012C420.916 199.622 420.988 199.191 420.988 198.72C420.988 198.253 420.916 197.824 420.773 197.433C420.634 197.039 420.417 196.723 420.125 196.484C419.833 196.246 419.464 196.127 419.019 196.127C418.571 196.127 418.199 196.246 417.903 196.484C417.611 196.723 417.393 197.039 417.25 197.433C417.11 197.824 417.04 198.253 417.04 198.72C417.04 199.191 417.11 199.622 417.25 200.012C417.393 200.403 417.611 200.717 417.903 200.952C418.199 201.187 418.571 201.305 419.019 201.305ZM427.372 202.501C426.686 202.501 426.087 202.344 425.575 202.029C425.063 201.715 424.666 201.274 424.383 200.709C424.1 200.143 423.959 199.482 423.959 198.725C423.959 197.965 424.1 197.301 424.383 196.732C424.666 196.163 425.063 195.721 425.575 195.407C426.087 195.092 426.686 194.935 427.372 194.935C428.059 194.935 428.658 195.092 429.17 195.407C429.682 195.721 430.079 196.163 430.362 196.732C430.645 197.301 430.786 197.965 430.786 198.725C430.786 199.482 430.645 200.143 430.362 200.709C430.079 201.274 429.682 201.715 429.17 202.029C428.658 202.344 428.059 202.501 427.372 202.501ZM427.377 201.305C427.822 201.305 428.191 201.187 428.483 200.952C428.776 200.717 428.992 200.403 429.132 200.012C429.275 199.622 429.346 199.191 429.346 198.72C429.346 198.253 429.275 197.824 429.132 197.433C428.992 197.039 428.776 196.723 428.483 196.484C428.191 196.246 427.822 196.127 427.377 196.127C426.929 196.127 426.557 196.246 426.262 196.484C425.969 196.723 425.751 197.039 425.608 197.433C425.469 197.824 425.399 198.253 425.399 198.72C425.399 199.191 425.469 199.622 425.608 200.012C425.751 200.403 425.969 200.717 426.262 200.952C426.557 201.187 426.929 201.305 427.377 201.305ZM435.388 202.497C434.796 202.497 434.269 202.346 433.805 202.044C433.344 201.738 432.981 201.305 432.718 200.742C432.457 200.176 432.327 199.498 432.327 198.706C432.327 197.915 432.459 197.238 432.722 196.675C432.989 196.112 433.355 195.682 433.819 195.383C434.283 195.084 434.809 194.935 435.397 194.935C435.852 194.935 436.217 195.011 436.494 195.164C436.773 195.313 436.99 195.488 437.142 195.688C437.298 195.888 437.419 196.065 437.505 196.217H437.59V192.589H439.016V202.354H437.624V201.214H437.505C437.419 201.37 437.295 201.548 437.133 201.748C436.974 201.948 436.754 202.123 436.475 202.272C436.195 202.422 435.833 202.497 435.388 202.497ZM435.702 201.281C436.112 201.281 436.459 201.173 436.742 200.957C437.028 200.737 437.244 200.434 437.39 200.046C437.539 199.658 437.614 199.207 437.614 198.692C437.614 198.183 437.541 197.738 437.395 197.357C437.249 196.975 437.034 196.678 436.751 196.465C436.468 196.252 436.119 196.146 435.702 196.146C435.273 196.146 434.916 196.257 434.629 196.48C434.343 196.702 434.127 197.006 433.981 197.39C433.838 197.775 433.767 198.209 433.767 198.692C433.767 199.181 433.84 199.622 433.986 200.012C434.132 200.403 434.348 200.713 434.634 200.942C434.924 201.168 435.28 201.281 435.702 201.281Z"
          fill="#212121"/>
    <rect x="0.680176" y="253.811" width="144.53" height="96.3537" rx="18.0663" fill="white"/>
    <path fill-rule="evenodd" clip-rule="evenodd"
          d="M70.5179 284.475C70.5297 284.554 70.5358 284.634 70.5358 284.715V297.42L70.5358 297.427C70.5325 300.932 67.7026 303.773 64.2122 303.773C60.7198 303.773 57.8887 300.929 57.8887 297.42C57.8887 293.912 60.7198 291.068 64.2122 291.068C65.364 291.068 66.4439 291.377 67.374 291.918V281.539C67.374 281.492 67.376 281.455 67.3799 281.427C67.5143 277.913 69.942 274.889 73.3614 274.031L79.8738 272.395C84.7667 271.166 89.5065 274.884 89.5065 279.951V294.244C89.5065 297.752 86.6754 300.597 83.183 300.597C79.6905 300.597 76.8594 297.752 76.8594 294.244C76.8594 290.736 79.6905 287.891 83.183 287.891C84.3348 287.891 85.4146 288.201 86.3447 288.741V281.825L70.5179 284.475ZM80.6406 275.477C83.0945 274.86 85.4834 276.345 86.1572 278.637L70.5604 281.248C70.7613 279.27 72.1751 277.603 74.1282 277.112L80.6406 275.477ZM64.2122 294.244C62.466 294.244 61.0505 295.666 61.0505 297.42C61.0505 299.175 62.466 300.597 64.2122 300.597C65.9584 300.597 67.374 299.175 67.374 297.42C67.374 295.666 65.9584 294.244 64.2122 294.244ZM80.0212 294.244C80.0212 292.49 81.4367 291.068 83.183 291.068C84.9292 291.068 86.3447 292.49 86.3447 294.244C86.3447 295.998 84.9292 297.42 83.183 297.42C81.4367 297.42 80.0212 295.998 80.0212 294.244Z"
          fill="#FF6160"/>
    <path d="M52.4361 319.053V328.817H51.0821L46.1187 321.656H46.0281V328.817H44.5549V319.053H45.9185L50.8866 326.223H50.9772V319.053H52.4361ZM54.6051 328.817V321.494H56.0307V328.817H54.6051ZM55.325 320.364C55.0771 320.364 54.8641 320.281 54.6861 320.116C54.5113 319.947 54.4239 319.747 54.4239 319.515C54.4239 319.28 54.5113 319.08 54.6861 318.914C54.8641 318.746 55.0771 318.662 55.325 318.662C55.573 318.662 55.7843 318.746 55.9592 318.914C56.1372 319.08 56.2262 319.28 56.2262 319.515C56.2262 319.747 56.1372 319.947 55.9592 320.116C55.7843 320.281 55.573 320.364 55.325 320.364ZM61.1533 331.716C60.5716 331.716 60.071 331.64 59.6514 331.487C59.235 331.335 58.8949 331.133 58.6311 330.882C58.3673 330.631 58.1702 330.356 58.0399 330.057L59.2652 329.551C59.3511 329.691 59.4655 329.839 59.6085 329.995C59.7547 330.154 59.9518 330.289 60.1997 330.4C60.4508 330.511 60.7735 330.567 61.1676 330.567C61.708 330.567 62.1546 330.435 62.5074 330.171C62.8602 329.911 63.0366 329.494 63.0366 328.922V327.482H62.946C62.8602 327.638 62.7362 327.811 62.5741 328.002C62.4152 328.193 62.1959 328.358 61.9162 328.498C61.6364 328.638 61.2725 328.707 60.8243 328.707C60.2458 328.707 59.7245 328.572 59.2605 328.302C58.7996 328.029 58.434 327.627 58.1639 327.096C57.8969 326.562 57.7634 325.906 57.7634 325.127C57.7634 324.348 57.8953 323.681 58.1591 323.124C58.4261 322.568 58.7916 322.142 59.2557 321.847C59.7198 321.548 60.2458 321.398 60.8339 321.398C61.2884 321.398 61.6555 321.475 61.9352 321.627C62.2149 321.777 62.4327 321.951 62.5884 322.152C62.7474 322.352 62.8697 322.528 62.9556 322.681H63.0604V321.494H64.4574V328.979C64.4574 329.609 64.3112 330.125 64.0188 330.529C63.7264 330.932 63.3306 331.231 62.8316 331.425C62.3357 331.619 61.7763 331.716 61.1533 331.716ZM61.139 327.525C61.549 327.525 61.8955 327.43 62.1784 327.239C62.4645 327.045 62.6806 326.769 62.8268 326.409C62.9762 326.047 63.0509 325.613 63.0509 325.108C63.0509 324.615 62.9778 324.181 62.8316 323.806C62.6854 323.431 62.4708 323.139 62.1879 322.929C61.905 322.716 61.5554 322.609 61.139 322.609C60.7099 322.609 60.3523 322.721 60.0662 322.943C59.7802 323.162 59.564 323.461 59.4178 323.839C59.2748 324.218 59.2032 324.64 59.2032 325.108C59.2032 325.588 59.2764 326.009 59.4226 326.371C59.5688 326.734 59.7849 327.016 60.071 327.22C60.3602 327.423 60.7162 327.525 61.139 327.525ZM67.9292 324.469V328.817H66.5036V319.053H67.9101V322.686H68.0007C68.1723 322.292 68.4346 321.978 68.7874 321.746C69.1402 321.514 69.6011 321.398 70.1701 321.398C70.6723 321.398 71.1109 321.502 71.486 321.708C71.8643 321.915 72.1567 322.223 72.3633 322.633C72.5731 323.04 72.678 323.549 72.678 324.159V328.817H71.2524V324.331C71.2524 323.793 71.1141 323.377 70.8376 323.081C70.561 322.783 70.1764 322.633 69.6838 322.633C69.3468 322.633 69.0449 322.705 68.7779 322.848C68.514 322.991 68.3058 323.201 68.1533 323.477C68.0039 323.75 67.9292 324.081 67.9292 324.469ZM78.1332 321.494V322.638H74.1329V321.494H78.1332ZM75.2057 319.739H76.6313V326.667C76.6313 326.943 76.6726 327.152 76.7552 327.291C76.8379 327.428 76.9444 327.522 77.0747 327.573C77.2082 327.62 77.3528 327.644 77.5086 327.644C77.623 327.644 77.7231 327.636 77.8089 327.62C77.8948 327.605 77.9615 327.592 78.0092 327.582L78.2667 328.76C78.184 328.792 78.0664 328.823 77.9138 328.855C77.7613 328.89 77.5706 328.909 77.3417 328.912C76.9666 328.919 76.617 328.852 76.2928 328.712C75.9686 328.572 75.7063 328.356 75.5061 328.064C75.3058 327.771 75.2057 327.404 75.2057 326.962V319.739ZM86.6167 328.965C85.9301 328.965 85.331 328.808 84.8192 328.493C84.3075 328.178 83.9101 327.738 83.6273 327.172C83.3444 326.606 83.2029 325.945 83.2029 325.189C83.2029 324.429 83.3444 323.765 83.6273 323.196C83.9101 322.627 84.3075 322.185 84.8192 321.87C85.331 321.556 85.9301 321.398 86.6167 321.398C87.3033 321.398 87.9024 321.556 88.4142 321.87C88.9259 322.185 89.3232 322.627 89.6061 323.196C89.889 323.765 90.0305 324.429 90.0305 325.189C90.0305 325.945 89.889 326.606 89.6061 327.172C89.3232 327.738 88.9259 328.178 88.4142 328.493C87.9024 328.808 87.3033 328.965 86.6167 328.965ZM86.6215 327.768C87.0665 327.768 87.4352 327.651 87.7276 327.415C88.02 327.18 88.2362 326.867 88.376 326.476C88.5191 326.085 88.5906 325.654 88.5906 325.184C88.5906 324.717 88.5191 324.288 88.376 323.897C88.2362 323.503 88.02 323.186 87.7276 322.948C87.4352 322.71 87.0665 322.59 86.6215 322.59C86.1733 322.59 85.8014 322.71 85.5058 322.948C85.2134 323.186 84.9956 323.503 84.8526 323.897C84.7127 324.288 84.6428 324.717 84.6428 325.184C84.6428 325.654 84.7127 326.085 84.8526 326.476C84.9956 326.867 85.2134 327.18 85.5058 327.415C85.8014 327.651 86.1733 327.768 86.6215 327.768ZM96.3951 325.78V321.494H97.8255V328.817H96.4237V327.549H96.3475C96.179 327.94 95.9088 328.266 95.5369 328.526C95.1682 328.784 94.7089 328.912 94.159 328.912C93.6886 328.912 93.2722 328.809 92.9098 328.603C92.5507 328.393 92.2678 328.083 92.0612 327.673C91.8577 327.263 91.756 326.756 91.756 326.152V321.494H93.1816V325.98C93.1816 326.479 93.3199 326.877 93.5964 327.172C93.8729 327.468 94.2321 327.616 94.6739 327.616C94.9409 327.616 95.2064 327.549 95.4702 327.415C95.7372 327.282 95.9581 327.08 96.1329 326.81C96.3109 326.54 96.3983 326.196 96.3951 325.78ZM103.294 321.494V322.638H99.2936V321.494H103.294ZM100.366 319.739H101.792V326.667C101.792 326.943 101.833 327.152 101.916 327.291C101.999 327.428 102.105 327.522 102.235 327.573C102.369 327.62 102.513 327.644 102.669 327.644C102.784 327.644 102.884 327.636 102.97 327.62C103.055 327.605 103.122 327.592 103.17 327.582L103.427 328.76C103.345 328.792 103.227 328.823 103.074 328.855C102.922 328.89 102.731 328.909 102.502 328.912C102.127 328.919 101.778 328.852 101.453 328.712C101.129 328.572 100.867 328.356 100.667 328.064C100.466 327.771 100.366 327.404 100.366 326.962V319.739Z"
          fill="#212121"/>
    <rect x="175.823" y="253.811" width="146.036" height="96.3537" rx="18.0663" fill="white"/>
    <path d="M247.549 299.031H229.611C229.284 299.031 229.011 299.28 228.979 299.605V299.605C228.765 301.84 230.522 303.774 232.767 303.774H247.549"
          stroke="#FF6160" stroke-width="3.01105"/>
    <path d="M247.549 299.031H267.037C267.36 299.031 267.631 299.276 267.665 299.597V299.597C267.897 301.83 266.145 303.774 263.9 303.774H247.549"
          stroke="#FF6160" stroke-width="3.01105"/>
    <path d="M232.781 298.506V276.372C232.781 274.045 234.668 272.158 236.995 272.158H260.003C262.331 272.158 264.218 274.045 264.218 276.372V298.506"
          stroke="#FF6160" stroke-width="3.01105"/>
    <path d="M243.579 300.129L244.065 300.557C244.642 301.065 245.384 301.345 246.153 301.345H250.779C251.485 301.345 252.17 301.109 252.726 300.674L253.423 300.129"
          stroke="#FF6160" stroke-width="3.01105"/>
    <path d="M219.618 322.229H218.131C218.073 321.911 217.967 321.631 217.811 321.39C217.655 321.148 217.465 320.943 217.239 320.775C217.013 320.606 216.761 320.479 216.481 320.393C216.204 320.307 215.91 320.265 215.599 320.265C215.036 320.265 214.533 320.406 214.088 320.689C213.646 320.972 213.296 321.387 213.039 321.933C212.784 322.48 212.657 323.148 212.657 323.936C212.657 324.73 212.784 325.401 213.039 325.948C213.296 326.495 213.647 326.908 214.092 327.188C214.537 327.467 215.038 327.607 215.594 327.607C215.902 327.607 216.195 327.566 216.471 327.483C216.751 327.397 217.004 327.272 217.23 327.106C217.455 326.941 217.646 326.739 217.802 326.501C217.961 326.259 218.07 325.983 218.131 325.671L219.618 325.676C219.539 326.156 219.385 326.598 219.156 327.002C218.93 327.402 218.639 327.749 218.283 328.041C217.93 328.33 217.527 328.554 217.072 328.713C216.618 328.872 216.122 328.952 215.585 328.952C214.739 328.952 213.986 328.751 213.325 328.351C212.664 327.947 212.142 327.37 211.761 326.62C211.383 325.87 211.193 324.975 211.193 323.936C211.193 322.893 211.384 321.998 211.766 321.252C212.147 320.501 212.668 319.926 213.329 319.526C213.991 319.122 214.742 318.92 215.585 318.92C216.103 318.92 216.586 318.995 217.034 319.144C217.485 319.29 217.891 319.506 218.25 319.793C218.609 320.075 218.906 320.422 219.141 320.832C219.377 321.239 219.536 321.704 219.618 322.229ZM224.486 328.966C223.799 328.966 223.2 328.809 222.688 328.494C222.177 328.179 221.779 327.739 221.496 327.173C221.213 326.607 221.072 325.946 221.072 325.19C221.072 324.43 221.213 323.766 221.496 323.197C221.779 322.628 222.177 322.186 222.688 321.871C223.2 321.557 223.799 321.399 224.486 321.399C225.172 321.399 225.772 321.557 226.283 321.871C226.795 322.186 227.192 322.628 227.475 323.197C227.758 323.766 227.9 324.43 227.9 325.19C227.9 325.946 227.758 326.607 227.475 327.173C227.192 327.739 226.795 328.179 226.283 328.494C225.772 328.809 225.172 328.966 224.486 328.966ZM224.491 327.769C224.936 327.769 225.304 327.652 225.597 327.416C225.889 327.181 226.105 326.868 226.245 326.477C226.388 326.086 226.46 325.655 226.46 325.185C226.46 324.718 226.388 324.289 226.245 323.898C226.105 323.504 225.889 323.187 225.597 322.949C225.304 322.71 224.936 322.591 224.491 322.591C224.042 322.591 223.67 322.71 223.375 322.949C223.082 323.187 222.865 323.504 222.722 323.898C222.582 324.289 222.512 324.718 222.512 325.185C222.512 325.655 222.582 326.086 222.722 326.477C222.865 326.868 223.082 327.181 223.375 327.416C223.67 327.652 224.042 327.769 224.491 327.769ZM233.94 324.074V325.309H229.611V324.074H233.94ZM237.562 328.818L235.407 321.495H236.88L238.315 326.873H238.387L239.827 321.495H241.3L242.73 326.849H242.802L244.227 321.495H245.701L243.55 328.818H242.096L240.609 323.531H240.499L239.011 328.818H237.562ZM249.915 328.966C249.229 328.966 248.63 328.809 248.118 328.494C247.606 328.179 247.209 327.739 246.926 327.173C246.643 326.607 246.502 325.946 246.502 325.19C246.502 324.43 246.643 323.766 246.926 323.197C247.209 322.628 247.606 322.186 248.118 321.871C248.63 321.557 249.229 321.399 249.915 321.399C250.602 321.399 251.201 321.557 251.713 321.871C252.225 322.186 252.622 322.628 252.905 323.197C253.188 323.766 253.329 324.43 253.329 325.19C253.329 325.946 253.188 326.607 252.905 327.173C252.622 327.739 252.225 328.179 251.713 328.494C251.201 328.809 250.602 328.966 249.915 328.966ZM249.92 327.769C250.365 327.769 250.734 327.652 251.026 327.416C251.319 327.181 251.535 326.868 251.675 326.477C251.818 326.086 251.889 325.655 251.889 325.185C251.889 324.718 251.818 324.289 251.675 323.898C251.535 323.504 251.319 323.187 251.026 322.949C250.734 322.71 250.365 322.591 249.92 322.591C249.472 322.591 249.1 322.71 248.805 322.949C248.512 323.187 248.294 323.504 248.151 323.898C248.012 324.289 247.942 324.718 247.942 325.185C247.942 325.655 248.012 326.086 248.151 326.477C248.294 326.868 248.512 327.181 248.805 327.416C249.1 327.652 249.472 327.769 249.92 327.769ZM254.921 328.818V321.495H256.298V322.658H256.375C256.508 322.264 256.743 321.954 257.08 321.728C257.42 321.499 257.805 321.385 258.234 321.385C258.323 321.385 258.428 321.388 258.549 321.395C258.673 321.401 258.77 321.409 258.84 321.418V322.782C258.782 322.766 258.681 322.749 258.535 322.73C258.388 322.707 258.242 322.696 258.096 322.696C257.759 322.696 257.459 322.768 257.195 322.911C256.934 323.051 256.728 323.246 256.575 323.497C256.422 323.745 256.346 324.028 256.346 324.346V328.818H254.921ZM261.385 326.334L261.375 324.594H261.623L264.541 321.495H266.248L262.92 325.023H262.696L261.385 326.334ZM260.073 328.818V319.054H261.499V328.818H260.073ZM264.698 328.818L262.076 325.338L263.058 324.341L266.448 328.818H264.698ZM267.547 328.818V321.495H268.973V328.818H267.547ZM268.267 320.365C268.019 320.365 267.806 320.282 267.628 320.117C267.453 319.948 267.366 319.748 267.366 319.516C267.366 319.281 267.453 319.081 267.628 318.915C267.806 318.747 268.019 318.663 268.267 318.663C268.515 318.663 268.726 318.747 268.901 318.915C269.079 319.081 269.168 319.281 269.168 319.516C269.168 319.748 269.079 319.948 268.901 320.117C268.726 320.282 268.515 320.365 268.267 320.365ZM272.316 324.47V328.818H270.89V321.495H272.259V322.687H272.349C272.518 322.299 272.782 321.987 273.141 321.752C273.503 321.517 273.959 321.399 274.509 321.399C275.008 321.399 275.445 321.504 275.82 321.714C276.195 321.921 276.486 322.229 276.693 322.639C276.9 323.049 277.003 323.556 277.003 324.16V328.818H275.577V324.332C275.577 323.801 275.439 323.386 275.162 323.087C274.886 322.785 274.506 322.634 274.023 322.634C273.692 322.634 273.398 322.706 273.141 322.849C272.887 322.992 272.685 323.202 272.535 323.478C272.389 323.751 272.316 324.082 272.316 324.47ZM281.985 331.717C281.404 331.717 280.903 331.641 280.483 331.488C280.067 331.336 279.727 331.134 279.463 330.883C279.199 330.631 279.002 330.357 278.872 330.058L280.097 329.552C280.183 329.692 280.297 329.84 280.44 329.996C280.587 330.155 280.784 330.29 281.032 330.401C281.283 330.512 281.605 330.568 282 330.568C282.54 330.568 282.987 330.436 283.339 330.172C283.692 329.912 283.869 329.495 283.869 328.923V327.483H283.778C283.692 327.639 283.568 327.812 283.406 328.003C283.247 328.194 283.028 328.359 282.748 328.499C282.468 328.639 282.104 328.708 281.656 328.708C281.078 328.708 280.556 328.573 280.092 328.303C279.632 328.03 279.266 327.628 278.996 327.097C278.729 326.563 278.595 325.907 278.595 325.128C278.595 324.349 278.727 323.682 278.991 323.125C279.258 322.569 279.624 322.143 280.088 321.848C280.552 321.549 281.078 321.399 281.666 321.399C282.12 321.399 282.487 321.476 282.767 321.628C283.047 321.778 283.265 321.952 283.42 322.153C283.579 322.353 283.702 322.529 283.788 322.682H283.892V321.495H285.289V328.98C285.289 329.61 285.143 330.126 284.851 330.53C284.558 330.933 284.163 331.232 283.664 331.426C283.168 331.62 282.608 331.717 281.985 331.717ZM281.971 327.526C282.381 327.526 282.727 327.431 283.01 327.24C283.296 327.046 283.513 326.77 283.659 326.41C283.808 326.048 283.883 325.614 283.883 325.109C283.883 324.616 283.81 324.182 283.664 323.807C283.517 323.432 283.303 323.14 283.02 322.93C282.737 322.717 282.387 322.61 281.971 322.61C281.542 322.61 281.184 322.722 280.898 322.944C280.612 323.163 280.396 323.462 280.25 323.84C280.107 324.219 280.035 324.641 280.035 325.109C280.035 325.589 280.108 326.01 280.255 326.372C280.401 326.735 280.617 327.017 280.903 327.221C281.192 327.424 281.548 327.526 281.971 327.526Z"
          fill="#212121"/>
    <rect x="350.967" y="253.811" width="145.032" height="96.3537" rx="18.0663" fill="white"/>
    <path fill-rule="evenodd" clip-rule="evenodd"
          d="M406 277.419C405.739 274.576 408.635 272.157 412.3 272.157H431.555C434.994 272.157 437.756 274.288 437.867 276.9H438.187C442.677 276.9 446.317 279.731 446.317 283.223C446.317 286.715 442.677 289.546 438.187 289.546H436.221C434.156 294.174 428.505 297.45 421.927 297.45C413.99 297.45 407.402 292.679 406.836 286.521L406 277.419ZM437.031 286.385H438.187C440.432 286.385 442.252 284.969 442.252 283.223C442.252 281.477 440.432 280.061 438.187 280.061H437.611L437.031 286.385ZM412.3 275.319C410.994 275.319 409.962 276.181 410.055 277.194L410.891 286.296C411.305 290.8 416.122 294.289 421.927 294.289C427.732 294.289 432.55 290.8 432.964 286.296L433.799 277.194C433.892 276.181 432.861 275.319 431.555 275.319H412.3Z"
          fill="#FF6160"/>
    <path d="M405.667 302.193C405.667 301.32 406.577 300.612 407.7 300.612H436.154C437.277 300.612 438.187 301.32 438.187 302.193C438.187 303.066 437.277 303.774 436.154 303.774H407.7C406.577 303.774 405.667 303.066 405.667 302.193Z"
          fill="#FF6160"/>
    <path d="M410.908 322.229H409.42C409.363 321.911 409.256 321.631 409.101 321.39C408.945 321.148 408.754 320.943 408.528 320.774C408.303 320.606 408.05 320.479 407.77 320.393C407.494 320.307 407.2 320.264 406.888 320.264C406.326 320.264 405.822 320.406 405.377 320.689C404.935 320.972 404.585 321.386 404.328 321.933C404.074 322.48 403.946 323.147 403.946 323.936C403.946 324.73 404.074 325.401 404.328 325.948C404.585 326.494 404.937 326.908 405.382 327.187C405.827 327.467 406.327 327.607 406.883 327.607C407.192 327.607 407.484 327.566 407.761 327.483C408.04 327.397 408.293 327.271 408.519 327.106C408.745 326.941 408.935 326.739 409.091 326.501C409.25 326.259 409.36 325.983 409.42 325.671L410.908 325.676C410.828 326.156 410.674 326.598 410.445 327.001C410.219 327.402 409.929 327.748 409.573 328.041C409.22 328.33 408.816 328.554 408.361 328.713C407.907 328.872 407.411 328.951 406.874 328.951C406.028 328.951 405.275 328.751 404.614 328.351C403.953 327.947 403.432 327.37 403.05 326.62C402.672 325.87 402.483 324.975 402.483 323.936C402.483 322.893 402.673 321.998 403.055 321.251C403.436 320.501 403.958 319.926 404.619 319.525C405.28 319.122 406.032 318.92 406.874 318.92C407.392 318.92 407.875 318.995 408.323 319.144C408.775 319.29 409.18 319.506 409.539 319.792C409.898 320.075 410.196 320.422 410.431 320.832C410.666 321.239 410.825 321.704 410.908 322.229ZM415.775 328.966C415.089 328.966 414.489 328.808 413.978 328.494C413.466 328.179 413.069 327.739 412.786 327.173C412.503 326.607 412.361 325.946 412.361 325.19C412.361 324.43 412.503 323.766 412.786 323.197C413.069 322.628 413.466 322.186 413.978 321.871C414.489 321.556 415.089 321.399 415.775 321.399C416.462 321.399 417.061 321.556 417.573 321.871C418.084 322.186 418.482 322.628 418.765 323.197C419.047 323.766 419.189 324.43 419.189 325.19C419.189 325.946 419.047 326.607 418.765 327.173C418.482 327.739 418.084 328.179 417.573 328.494C417.061 328.808 416.462 328.966 415.775 328.966ZM415.78 327.769C416.225 327.769 416.594 327.651 416.886 327.416C417.178 327.181 417.395 326.868 417.534 326.477C417.677 326.086 417.749 325.655 417.749 325.185C417.749 324.718 417.677 324.288 417.534 323.897C417.395 323.503 417.178 323.187 416.886 322.949C416.594 322.71 416.225 322.591 415.78 322.591C415.332 322.591 414.96 322.71 414.664 322.949C414.372 323.187 414.154 323.503 414.011 323.897C413.871 324.288 413.801 324.718 413.801 325.185C413.801 325.655 413.871 326.086 414.011 326.477C414.154 326.868 414.372 327.181 414.664 327.416C414.96 327.651 415.332 327.769 415.78 327.769ZM424.4 321.494V322.639H420.261V321.494H424.4ZM421.396 328.818V320.646C421.396 320.188 421.496 319.808 421.696 319.506C421.897 319.201 422.162 318.974 422.493 318.824C422.823 318.672 423.182 318.596 423.57 318.596C423.856 318.596 424.101 318.619 424.304 318.667C424.508 318.712 424.659 318.753 424.757 318.791L424.424 319.945C424.357 319.926 424.271 319.904 424.166 319.878C424.061 319.85 423.934 319.835 423.785 319.835C423.438 319.835 423.19 319.921 423.041 320.093C422.895 320.264 422.822 320.512 422.822 320.836V328.818H421.396ZM429.49 321.494V322.639H425.352V321.494H429.49ZM426.486 328.818V320.646C426.486 320.188 426.587 319.808 426.787 319.506C426.987 319.201 427.252 318.974 427.583 318.824C427.914 318.672 428.273 318.596 428.661 318.596C428.947 318.596 429.191 318.619 429.395 318.667C429.598 318.712 429.749 318.753 429.848 318.791L429.514 319.945C429.447 319.926 429.361 319.904 429.257 319.878C429.152 319.85 429.024 319.835 428.875 319.835C428.529 319.835 428.281 319.921 428.131 320.093C427.985 320.264 427.912 320.512 427.912 320.836V328.818H426.486ZM433.963 328.966C433.242 328.966 432.62 328.812 432.099 328.503C431.581 328.192 431.18 327.755 430.897 327.192C430.618 326.626 430.478 325.964 430.478 325.204C430.478 324.454 430.618 323.793 430.897 323.22C431.18 322.648 431.574 322.202 432.08 321.881C432.588 321.56 433.183 321.399 433.863 321.399C434.276 321.399 434.677 321.467 435.065 321.604C435.452 321.741 435.8 321.955 436.109 322.248C436.417 322.54 436.66 322.92 436.838 323.387C437.016 323.851 437.105 324.416 437.105 325.08V325.585H431.284V324.517H435.708C435.708 324.142 435.632 323.81 435.479 323.521C435.327 323.228 435.112 322.998 434.836 322.829C434.562 322.661 434.241 322.577 433.873 322.577C433.472 322.577 433.122 322.675 432.824 322.872C432.528 323.066 432.299 323.321 432.137 323.635C431.978 323.947 431.899 324.285 431.899 324.651V325.485C431.899 325.975 431.984 326.391 432.156 326.734C432.331 327.078 432.574 327.34 432.886 327.521C433.197 327.699 433.561 327.788 433.977 327.788C434.248 327.788 434.494 327.75 434.716 327.674C434.939 327.594 435.131 327.477 435.293 327.321C435.455 327.165 435.579 326.973 435.665 326.744L437.015 326.987C436.907 327.384 436.713 327.732 436.433 328.031C436.156 328.327 435.808 328.557 435.389 328.723C434.972 328.885 434.497 328.966 433.963 328.966ZM441.977 328.966C441.256 328.966 440.635 328.812 440.113 328.503C439.595 328.192 439.195 327.755 438.912 327.192C438.632 326.626 438.492 325.964 438.492 325.204C438.492 324.454 438.632 323.793 438.912 323.22C439.195 322.648 439.589 322.202 440.094 321.881C440.603 321.56 441.197 321.399 441.877 321.399C442.291 321.399 442.691 321.467 443.079 321.604C443.467 321.741 443.815 321.955 444.123 322.248C444.431 322.54 444.675 322.92 444.853 323.387C445.031 323.851 445.12 324.416 445.12 325.08V325.585H439.298V324.517H443.723C443.723 324.142 443.646 323.81 443.494 323.521C443.341 323.228 443.127 322.998 442.85 322.829C442.577 322.661 442.256 322.577 441.887 322.577C441.486 322.577 441.137 322.675 440.838 322.872C440.542 323.066 440.314 323.321 440.151 323.635C439.992 323.947 439.913 324.285 439.913 324.651V325.485C439.913 325.975 439.999 326.391 440.17 326.734C440.345 327.078 440.588 327.34 440.9 327.521C441.211 327.699 441.575 327.788 441.992 327.788C442.262 327.788 442.508 327.75 442.731 327.674C442.953 327.594 443.146 327.477 443.308 327.321C443.47 327.165 443.594 326.973 443.68 326.744L445.029 326.987C444.921 327.384 444.727 327.732 444.447 328.031C444.171 328.327 443.823 328.557 443.403 328.723C442.987 328.885 442.511 328.966 441.977 328.966Z"
          fill="#212121"/>
</svg>
