<svg width="100%" viewBox="0 0 111 179" fill="none" xmlns="http://www.w3.org/2000/svg">
    <path d="M42.2661 178.486C30.6994 175.973 17.5084 168.548 8.30194 159.369C3.85385 154.935 2.37442 152.64 1.08906 148.182C-0.458836 142.814 -0.433781 142 1.66287 129.2C3.55319 117.662 3.80467 113.047 3.4948 95.5855C3.09211 72.876 3.4948 71.7441 8.96422 79.6203C10.6016 81.9715 13.9753 86.1886 16.4617 88.9921C21.883 95.1046 23.4556 98.1668 25.0771 105.765C27.4766 117.013 35.0299 121.149 40.9563 114.461C44.7333 110.199 44.7096 104.546 40.8787 95.734C36.6761 86.0696 34.5747 73.4413 35.2702 62.0271C35.8005 53.3187 39.8395 31.1022 41.1286 29.8028C42.7856 28.1321 44.6869 31.0213 46.1242 37.393C50.0217 54.6707 59.621 67.9846 63.2504 61.1465C63.7954 60.1196 64.223 54.2374 64.2005 48.0753C64.1635 39.0954 64.6532 35.0108 66.647 27.4993C69.7387 15.8539 74.5518 1.95466 75.9973 0.4968C77.7016 -1.22131 78.9284 1.6269 78.9454 7.34127C78.9824 14.4606 80.5845 22.7603 83.8367 32.4318C85.456 37.2487 87.1187 45.0965 87.7429 50.872C89.0401 62.8686 87.702 72.5995 82.9892 85.4257C79.9311 93.7505 76.5904 108.23 77.168 110.657C77.3566 111.448 81.3967 107.789 86.7874 101.947C96.5041 91.417 103.42 80.1725 103.42 74.9044C103.42 72.1673 105.827 69.0577 107.017 70.2576C107.353 70.5969 108.479 76.7657 109.514 83.9625C112.662 105.824 111.139 114.503 101.744 128.255C96.8189 135.465 95.9467 137.519 93.8796 146.778C92.6009 152.506 90.8653 158.657 90.0229 160.447C87.707 165.368 80.3696 171.104 71.4379 174.976C64.8536 177.83 61.8904 178.528 54.8057 178.893C50.0641 179.135 44.4208 178.953 42.2661 178.486Z"
          fill="#FF6160"/>
</svg>
