<svg width="100%" viewBox="0 0 92 40" xmlns="http://www.w3.org/2000/svg">
    <path d="M0 38.6134V1.09058H25.7025V7.43896H7.57073V16.3213H23.2225V22.6696H7.57073V38.6158H0V38.6134Z"/>
    <path d="M60.6768 27.1207L68.0429 26.4051C68.4866 28.8798 69.3864 30.6983 70.7398 31.8579C72.0957 33.02 73.9249 33.5998 76.225 33.5998C78.6631 33.5998 80.4997 33.0841 81.7372 32.0503C82.9723 31.019 83.5911 29.81 83.5911 28.4283C83.5911 27.5401 83.3323 26.7876 82.8121 26.1633C82.2919 25.5416 81.3847 24.9988 80.088 24.5374C79.2005 24.2314 77.1815 23.6837 74.026 22.8991C69.9682 21.8924 67.1209 20.6563 65.484 19.1883C63.1814 17.1231 62.0326 14.6065 62.0326 11.6383C62.0326 9.72615 62.5725 7.93982 63.6572 6.27686C64.7395 4.61389 66.3 3.3457 68.3362 2.47474C70.3725 1.60378 72.8328 1.16953 75.7147 1.16953C80.4208 1.16953 83.9634 2.20087 86.3398 4.266C88.7188 6.33114 89.9662 9.08712 90.087 12.5339L82.5163 12.867C82.1933 10.9401 81.4981 9.55097 80.4331 8.70715C79.3682 7.86334 77.7682 7.43896 75.6383 7.43896C73.5083 7.43896 71.7161 7.89048 70.4711 8.79598C69.6699 9.37579 69.2681 10.153 69.2681 11.1251C69.2681 12.0133 69.6428 12.7733 70.3922 13.4049C71.3463 14.2068 73.6661 15.0432 77.3491 15.9142C81.0322 16.7851 83.7563 17.6857 85.5214 18.6134C87.2865 19.5436 88.667 20.8142 89.6654 22.4278C90.6639 24.0415 91.1618 26.0326 91.1618 28.4061C91.1618 30.5576 90.5653 32.5709 89.3721 34.4461C88.1789 36.3237 86.4902 37.7177 84.3085 38.6306C82.1268 39.5435 79.4076 40 76.151 40C71.4104 40 67.7717 38.9045 65.23 36.7111C62.6884 34.5176 61.1723 31.3225 60.6768 27.1231V27.1207Z"/>
    <path d="M25.7913 38.4974C24.1495 37.9373 22.8848 37.0121 21.9924 35.7192C21.1025 34.4263 20.6316 32.6005 20.5798 30.2418C20.5281 27.883 20.8683 24.8877 21.6004 21.2509C21.8445 20.0271 22.1946 18.6306 22.6482 17.0565C23.1018 15.4823 23.6343 13.8663 24.2456 12.2082C24.857 10.5477 25.5029 8.94151 26.1833 7.38464C26.8637 5.83024 27.5367 4.45842 28.1999 3.26918C29.0035 1.83567 29.6494 0.920301 30.1375 0.51813C30.6257 0.115959 31.062 -0.0493503 31.4466 0.0197343C32.1788 0.194913 32.7113 0.525533 33.0441 1.01406C33.3744 1.50505 33.5051 2.02812 33.436 2.58573C33.3645 3.14581 33.0342 3.61707 32.4401 4.00197C32.0555 4.45595 31.5575 5.28497 30.9461 6.49148C30.3348 7.69552 29.716 8.8601 29.0874 9.97779C28.3872 12.0059 27.7783 13.7972 27.2532 15.3516C26.7306 16.906 26.2918 18.3666 25.9442 19.7286C25.5941 21.0905 25.281 22.524 25.0025 24.0266C24.6869 25.4947 24.4527 26.6839 24.2949 27.5894C24.1372 28.4999 24.0336 29.2228 23.9819 29.7656C23.9301 30.3084 23.8931 30.787 23.8783 31.209C23.8611 31.6284 23.8512 32.0824 23.8512 32.5709C24.1298 33.0249 24.3566 33.4271 24.5316 33.7774C24.7066 34.1278 24.9334 34.3375 25.212 34.4066C25.8061 34.6879 26.4594 34.7742 27.1768 34.6681C27.8917 34.5645 28.6165 34.3005 29.3511 33.8811C29.5262 33.5332 29.891 33.2173 30.4506 32.9361C30.5197 33.1112 30.5985 33.1557 30.6848 33.0668C30.7711 32.978 30.8327 32.867 30.8697 32.7263C30.8352 32.5857 30.8697 32.4549 30.9733 32.3316C31.0768 32.2107 31.2001 32.0799 31.3406 31.9393C31.6192 31.8357 32.021 31.4927 32.5461 30.9178C33.0687 30.3405 33.5938 29.6866 34.1164 28.9514C34.6391 28.2186 35.0951 27.5549 35.4797 26.9603C35.8618 26.3656 36.0566 26.0005 36.0566 25.8598C36.0566 25.6847 36.1256 25.5268 36.2661 25.3886C36.4042 25.2504 36.562 25.0752 36.737 24.8655C36.912 24.6903 37.2695 24.1229 37.8094 23.1631C38.3517 22.2033 38.9434 21.0757 39.5893 19.7829C40.2351 18.49 40.8194 17.3007 41.3445 16.2176C41.448 15.8327 41.6403 15.2134 41.9214 14.3573C42.1999 13.5011 42.5056 12.5142 42.8384 11.3965C43.1688 10.2788 43.4942 9.15124 43.8073 8.01627C44.1204 6.88131 44.4088 5.86725 44.6726 4.97655C44.9339 4.08586 45.0991 3.42955 45.1705 3.01011C45.2396 2.55613 45.3431 2.18109 45.4836 1.88255C45.6217 1.58401 45.7104 1.36688 45.7449 1.22625C45.9545 1.08561 46.2158 1.07821 46.5314 1.19911C46.8444 1.32247 47.16 1.47051 47.4755 1.64569C47.7886 1.82087 48.0524 1.95904 48.262 2.06513C48.4715 2.3464 48.5578 2.69429 48.5233 3.11374C48.4888 3.53318 48.3729 4.16974 48.1831 5.02837C47.9908 5.88452 47.7196 7.11818 47.372 8.72439C46.6398 11.5889 45.7573 14.229 44.7268 16.6395C43.6963 19.0501 42.587 21.6013 41.4012 24.2931V24.6064C40.9821 24.8507 40.6493 25.2183 40.4052 25.7069C40.2302 26.0202 40.0823 26.2941 39.959 26.5186C39.8358 26.7456 39.6879 26.9109 39.5128 27.017C39.4093 27.3303 39.2515 27.735 39.042 28.2235C39.0075 28.3987 38.8842 28.5566 38.6747 28.6948C38.4651 28.8354 38.2556 28.9736 38.046 29.1142C37.871 29.1858 37.765 29.3239 37.7305 29.5337C37.696 29.7434 37.6269 29.9186 37.5209 30.0567C36.7518 31.2114 35.8618 32.3464 34.8486 33.4641C33.8354 34.5842 32.7877 35.5613 31.7054 36.4002C30.6232 37.2391 29.61 37.8337 28.6683 38.1816C28.0396 38.4258 27.5244 38.5665 27.1226 38.601C26.7207 38.6356 26.277 38.601 25.7864 38.4974H25.7913Z"/>
    <path d="M48.2199 39.3141C47.5912 39.1389 46.8936 38.9292 46.1244 38.6849C46.1935 38.5097 46.1688 38.3518 46.0455 38.2136C45.9223 38.073 45.6708 37.9867 45.2862 37.9496C44.7636 37.6363 44.2656 37.2169 43.7948 36.6913C43.3239 36.1682 42.9295 35.6526 42.6164 35.1443C42.3033 34.6385 42.074 34.2265 41.936 33.9131C41.6919 33.3901 41.613 33.0668 41.6993 32.9435C41.7856 32.8226 42.0223 32.6745 42.4069 32.4994C42.7914 32.2206 43.1144 32.0972 43.3757 32.1317C43.637 32.1663 43.9082 32.4821 44.1868 33.0742C44.6404 33.8786 45.3996 34.5078 46.4646 34.9617C47.5296 35.4157 48.7351 35.6427 50.0787 35.6427C51.4222 35.6427 52.7239 35.3639 53.9811 34.8038C55.1324 34.3153 55.8399 33.775 56.1037 33.1779C56.365 32.5833 56.1998 31.8332 55.6057 30.9252C55.4997 30.6464 55.3691 30.4194 55.2137 30.2442C55.0584 30.0691 54.8218 29.8421 54.5062 29.5633C54.1931 29.2845 53.7026 28.8305 53.0394 28.1988C52.5168 27.9546 52.0361 27.7276 51.5997 27.5179C51.1634 27.3082 50.6999 27.0812 50.2118 26.8369C49.6522 26.5581 48.9989 26.146 48.247 25.6057C47.4951 25.0629 46.7802 24.4707 46.0998 23.8243C45.4194 23.1779 44.9214 22.5759 44.6058 22.0158C44.0462 21.4927 43.6444 20.7673 43.4003 19.8421C43.1563 18.9168 43.0848 17.9274 43.1908 16.8788C43.2968 15.8302 43.5754 14.8877 44.029 14.0488C44.2385 13.5603 44.6058 12.9484 45.1285 12.2132C45.6511 11.4804 46.2378 10.7278 46.8837 9.96052C47.5296 9.19072 48.1582 8.50234 48.7696 7.89045C49.381 7.27855 49.8765 6.85171 50.2611 6.60498C50.5397 6.32617 50.9933 5.88946 51.6219 5.29484C51.6564 5.11966 51.76 5.03331 51.935 5.03331C52.11 4.92968 52.4921 4.7545 53.0863 4.51024C53.6804 4.26597 54.3263 3.81199 55.0239 3.14582C57.3634 2.02813 59.2937 1.22378 60.8123 0.735257C62.3309 0.246731 63.561 0 64.5052 0C65.3779 0.0345423 66.189 0.244263 66.9409 0.629163C67.6903 1.01406 68.3189 1.51246 68.8268 2.12188C69.3321 2.73378 69.6378 3.45916 69.7438 4.29805C69.9879 5.13693 69.9016 6.11645 69.4825 7.23414C69.0634 8.3543 68.4693 9.40044 67.7026 10.38C66.9335 11.3595 66.1126 12.0923 65.2399 12.5808C64.2612 13.0002 63.5635 13.1483 63.1444 13.0274C62.7253 12.904 62.533 12.5117 62.5675 11.848C62.5675 11.5692 62.6637 11.2361 62.856 10.8537C63.0483 10.4688 63.5808 9.7878 64.4534 8.80828C65.5702 7.16506 66.226 5.88946 66.4182 4.98149C66.6105 4.07352 66.3566 3.56526 65.6589 3.46163C65.4494 3.39255 65.0648 3.40242 64.5077 3.48877C63.9481 3.57513 63.3466 3.68862 62.7007 3.82926C62.0548 3.9699 61.4952 4.10066 61.0243 4.22156C60.5534 4.34493 60.3168 4.44115 60.3168 4.51024C60.3168 4.71996 60.2478 4.80878 60.1072 4.77177C60.0382 4.77177 59.7572 4.90254 59.2691 5.16407C58.7785 5.42561 58.1942 5.77596 57.5138 6.21268C56.8334 6.64939 56.153 7.0861 55.4701 7.52282C54.7897 7.95953 54.203 8.33456 53.7149 8.65038C53.2268 8.96372 52.963 9.15864 52.9285 9.22773C52.8594 9.61263 52.4576 9.96298 51.723 10.2763C51.0229 10.6958 50.3967 11.2978 49.8371 12.0849C49.2775 12.8719 48.6488 13.8589 47.9512 15.0456C47.357 15.85 46.938 16.716 46.6939 17.6412C46.4498 18.5665 46.4498 19.3091 46.6939 19.8692C46.8689 20.4293 47.3916 21.1004 48.2667 21.8875C49.1394 22.6745 50.2562 23.469 51.6194 24.2734C52.8052 24.9371 53.8899 25.6032 54.8661 26.2645C55.8424 26.9282 56.6559 27.5746 57.3018 28.2038C57.9477 28.8329 58.3766 29.3758 58.5862 29.8297C59.0053 30.4244 59.2937 31.0437 59.4515 31.6901C59.6093 32.3365 59.6881 32.9657 59.6881 33.5776C59.6881 34.1895 59.6191 34.7224 59.4786 35.1764C59.2345 35.7365 58.8155 36.3113 58.2213 36.906C57.6272 37.5006 57.1218 37.7794 56.7027 37.7449C56.3182 37.8485 56.0297 37.9718 55.8375 38.1125C55.6452 38.2531 55.4258 38.374 55.1817 38.4801C54.9376 38.6183 54.4052 38.7688 53.5842 38.9267C52.7633 39.0846 51.8635 39.1981 50.8873 39.2672C49.9086 39.3363 49.0186 39.3535 48.2149 39.319L48.2199 39.3141Z"/>

    <style>
        path { fill: #000; }
        @media (prefers-color-scheme: dark) {
        path { fill: #FFF; }
        }
    </style>
</svg>
